<?xml version="1.0" encoding="UTF-8"?>
<svg width="56px" height="56px" viewBox="0 0 56 56" version="1.1" xmlns="http://www.w3.org/2000/svg" xmlns:xlink="http://www.w3.org/1999/xlink">
    <!-- Generator: Sketch 47 (45396) - http://www.bohemiancoding.com/sketch -->
    <title>spider</title>
    <desc>Created with Sketch.</desc>
    <defs>
        <filter x="-9.5%" y="-8.5%" width="119.0%" height="119.0%" filterUnits="objectBoundingBox" id="filter-1">
            <feOffset dx="0" dy="0.5" in="SourceAlpha" result="shadowOffsetOuter1"></feOffset>
            <feGaussianBlur stdDeviation="1.5" in="shadowOffsetOuter1" result="shadowBlurOuter1"></feGaussianBlur>
            <feColorMatrix values="0 0 0 0 0   0 0 0 0 0   0 0 0 0 0  0 0 0 0.5 0" type="matrix" in="shadowBlurOuter1" result="shadowMatrixOuter1"></feColorMatrix>
            <feMerge>
                <feMergeNode in="shadowMatrixOuter1"></feMergeNode>
                <feMergeNode in="SourceGraphic"></feMergeNode>
            </feMerge>
        </filter>
    </defs>
    <g id="Pages" stroke="none" stroke-width="1" fill="none" fill-rule="evenodd">
        <g id="Profile-Page-Desktop-HD" transform="translate(-446.000000, -147.000000)" fill-rule="nonzero">
            <g id="Navi" transform="translate(-1.000000, 127.000000)">
                <g id="Group-7" transform="translate(450.000000, 22.000000)">
                    <g id="Group-4">
                        <g id="spider" filter="url(#filter-1)">
                            <circle id="Oval" fill="#7C9FD7" cx="25" cy="25" r="25"></circle>
                            <path d="M34.5237238,10 L34.0587085,10.2276749 L35.4872079,13.724758 L33.1479065,18.7438151 L32.5256298,18.9025327 L28.1078869,14.5656335 C27.2831225,13.7560585 26.1438352,13.2551543 24.8852528,13.2551543 C23.2171823,13.2551543 21.7591535,14.135324 20.9648996,15.447922 L15.7118952,10.2910464 L15.2467818,10.0633714 C14.9905329,10.4794272 13.2079745,13.3732294 12.9936162,13.7211945 C13.1926702,14.3948773 14.7542973,19.6786885 15.0151571,20.5611696 C16.0845941,21.6110361 16.4451281,21.9649723 17.5150555,23.0153204 C16.4424792,22.7723323 13.8569356,22.1865798 12.8473424,21.9578455 C12.4759189,22.399712 8.62404261,26.9833554 8,27.7258992 C8.02795978,28.1699809 8.27027785,32.0151254 8.30382958,32.5476189 L8.30382958,32.5476189 L12.3513262,36.5210472 L12.7241232,38.7998189 L24.120234,49.9875761 C24.3743247,49.9950882 24.6292001,50 24.8852528,50 C38.7557549,50 50,38.9615221 50,25.3448471 C50,25.293418 49.9983322,25.2423741 49.9980379,25.1911376 L34.5237238,10 Z" id="Shape" fill="#6386BD"></path>
                            <g id="Group" transform="translate(26.000000, 10.000000)" fill="#2D2E30">
                                <path d="M8.0506,0.293383333 L9.5067,3.80344667 L7.1222,8.84113333 L0.0081,10.62734 L0.5548,12.6617867 C1.4941,12.4260167 7.9747,10.7988267 8.7608,10.6014333 C8.9806,9.86908667 10.6405,4.33859333 10.8214,3.73607 C10.6032,3.38710333 8.7864,0.48285 8.5247,0.06467 L8.0506,0.293383333 Z" id="Shape"></path>
                                <path d="M1.3219,14.1559633 L1.8109,16.2041367 L10.2144,14.32948 L14.3413,18.3782667 L14.6135,22.6326633 L15.6019,22.6326633 C15.6382,22.0661 15.8783,18.3136933 15.9116,17.7930467 C14.8671,16.5692467 12.0111,13.2227433 10.9706,12.0035833 C9.9084,12.2404167 2.3731,13.92145 1.3219,14.1559633 Z" id="Shape"></path>
                                <path d="M3.0586,18.2748333 L3.6324,20.30232 L7.9325,19.1651333 L10.3654,25.11661 L10.0257,28.7786333 L11.0963,28.9079733 C11.1769,28.4229967 11.6868,25.3546033 11.7482,24.9851433 C11.5315,24.23211 9.5596,17.3764133 9.3402,16.6136167 C8.5957,16.81043 3.7093,18.10267 3.0586,18.2748333 Z" id="Shape"></path>
                            </g>
                            <g id="Group" transform="translate(8.000000, 10.000000)" fill="#3E3E42">
                                <path d="M6.4932,3.78319064 L7.9493,0.26138796 L7.4752,0.0321036789 C7.2134,0.452070234 5.397,3.36545485 5.1785,3.71578261 C5.4043,4.47036455 6.8997,9.46980936 7.2391,10.604107 C8.0253,10.8021605 14.5058,12.4347926 15.4451,12.6713512 L15.9918,10.6301003 L8.8776,8.83791973 L6.4932,3.78319064 Z" id="Shape"></path>
                                <path d="M14.1892,16.2252575 L14.6782,14.1702341 C13.6293,13.9354214 6.0914,12.2482809 5.0296,12.0106555 C4.5754,12.5445853 0.5416,17.2869097 0.0886,17.8194816 C0.1184,18.2865853 0.3635,22.1301037 0.3983,22.6752843 L1.3867,22.6752843 L1.6589,18.4067559 L5.7858,14.3444281 L14.1892,16.2252575 Z" id="Shape"></path>
                                <path d="M12.3675,20.3371472 L12.9413,18.3028796 C12.2908,18.1303344 7.4042,16.8336756 6.6597,16.63601 C6.2452,18.0821304 4.4598,24.3098562 4.2517,25.0355351 C4.2837,25.2289331 4.8713,28.7767291 4.9036,28.9714849 L5.9742,28.8417124 L5.6345,25.1674415 L8.0674,19.1959632 L12.3675,20.3371472 Z" id="Shape"></path>
                            </g>
                            <g id="Group" transform="translate(18.000000, 13.000000)" fill="#57565C">
                                <ellipse id="Oval" cx="7" cy="15.8339286" rx="6.9189" ry="9.11934524"></ellipse>
                                <ellipse id="Oval" cx="7" cy="4.65545635" rx="4.6456" ry="4.60873016"></ellipse>
                            </g>
                            <path d="M28.3852202,20.8333493 C29.1988466,20.0016689 29.7000535,18.8717508 29.7000535,17.6260227 C29.7000535,15.0712345 27.5957739,13 25,13 L25,38 C28.8659903,38 32,33.9018434 32,28.8464379 C32,25.3969362 30.5404905,22.3936461 28.3852202,20.8333493 Z" id="Shape" fill="#3E3E42"></path>
                        </g>
                    </g>
                </g>
            </g>
        </g>
    </g>
</svg>