<?xml version="1.0" encoding="UTF-8"?>
<svg width="861px" height="384px" viewBox="0 0 861 384" version="1.1" xmlns="http://www.w3.org/2000/svg" xmlns:xlink="http://www.w3.org/1999/xlink">
    <!-- Generator: Sketch 47 (45396) - http://www.bohemiancoding.com/sketch -->
    <title>Pages</title>
    <desc>Created with Sketch.</desc>
    <defs>
        <filter x="-1.2%" y="-1.6%" width="102.3%" height="104.4%" filterUnits="objectBoundingBox" id="filter-1">
            <feOffset dx="0" dy="1.5" in="SourceAlpha" result="shadowOffsetOuter1"></feOffset>
            <feGaussianBlur stdDeviation="1.5" in="shadowOffsetOuter1" result="shadowBlurOuter1"></feGaussianBlur>
            <feColorMatrix values="0 0 0 0 0   0 0 0 0 0   0 0 0 0 0  0 0 0 0.5 0" type="matrix" in="shadowBlurOuter1" result="shadowMatrixOuter1"></feColorMatrix>
            <feMerge>
                <feMergeNode in="shadowMatrixOuter1"></feMergeNode>
                <feMergeNode in="SourceGraphic"></feMergeNode>
            </feMerge>
        </filter>
        <filter x="-1.0%" y="-1.1%" width="102.0%" height="102.8%" filterUnits="objectBoundingBox" id="filter-2">
            <feOffset dx="0" dy="1" in="SourceAlpha" result="shadowOffsetOuter1"></feOffset>
            <feGaussianBlur stdDeviation="1.5" in="shadowOffsetOuter1" result="shadowBlurOuter1"></feGaussianBlur>
            <feColorMatrix values="0 0 0 0 0   0 0 0 0 0   0 0 0 0 0  0 0 0 0.5 0" type="matrix" in="shadowBlurOuter1" result="shadowMatrixOuter1"></feColorMatrix>
            <feMerge>
                <feMergeNode in="shadowMatrixOuter1"></feMergeNode>
                <feMergeNode in="SourceGraphic"></feMergeNode>
            </feMerge>
        </filter>
        <filter x="-1.2%" y="-1.6%" width="102.3%" height="104.4%" filterUnits="objectBoundingBox" id="filter-3">
            <feOffset dx="0" dy="1.5" in="SourceAlpha" result="shadowOffsetOuter1"></feOffset>
            <feGaussianBlur stdDeviation="1.5" in="shadowOffsetOuter1" result="shadowBlurOuter1"></feGaussianBlur>
            <feColorMatrix values="0 0 0 0 0   0 0 0 0 0   0 0 0 0 0  0 0 0 0.5 0" type="matrix" in="shadowBlurOuter1" result="shadowMatrixOuter1"></feColorMatrix>
            <feMerge>
                <feMergeNode in="shadowMatrixOuter1"></feMergeNode>
                <feMergeNode in="SourceGraphic"></feMergeNode>
            </feMerge>
        </filter>
    </defs>
    <g id="Pages" stroke="none" stroke-width="1" fill="none" fill-rule="evenodd">
        <g id="Landing-Page-Desktop-HD" transform="translate(-292.000000, -376.000000)">
            <g id="Pages" transform="translate(295.000000, 377.000000)">
                <g id="Back-Page" filter="url(#filter-1)">
                    <rect id="Rectangle-path" fill="#F6F8FB" fill-rule="nonzero" x="0" y="0" width="452" height="236"></rect>
                    <rect id="Rectangle-2" fill="#D8D8D8" x="0" y="0" width="452" height="12"></rect>
                    <circle id="Oval-2" fill="#FC8686" cx="8" cy="6" r="3"></circle>
                    <circle id="Oval-2" fill="#E9D059" cx="18" cy="6" r="3"></circle>
                    <circle id="Oval-2" fill="#7CC875" cx="28" cy="6" r="3"></circle>
                    <g id="server" transform="translate(27.000000, 37.000000)" fill-rule="nonzero">
                        <rect id="Rectangle-path" fill="#3F4A5A" x="13" y="49" width="150" height="123"></rect>
                        <path d="M175,44.3773979 C175,46.9220423 172.960498,49 170.467432,49 L4.53325195,49 C2.03881836,49.0003485 0,46.9220423 0,44.3773979 L0,4.62434472 C0,2.0797004 2.03881836,0 4.53325195,0 L170.467432,0 C172.960156,0 175,2.080746 175,4.62434472 L175,44.3773979 Z" id="Shape" fill="#E6E5E5"></path>
                        <g id="Group" transform="translate(12.000000, 12.000000)" fill="#CCCBCA">
                            <rect id="Rectangle-path" x="0.0459" y="0.154477612" width="4.50942" height="4.55297015"></rect>
                            <rect id="Rectangle-path" x="9.0661" y="0.154477612" width="4.50942" height="4.55297015"></rect>
                            <rect id="Rectangle-path" x="18.08426" y="0.154477612" width="4.51112" height="4.55297015"></rect>
                            <rect id="Rectangle-path" x="27.10582" y="0.154477612" width="4.50942" height="4.55297015"></rect>
                            <rect id="Rectangle-path" x="36.1267" y="0.154477612" width="4.50942" height="4.55297015"></rect>
                            <rect id="Rectangle-path" x="45.14486" y="0.154477612" width="4.51112" height="4.55297015"></rect>
                            <rect id="Rectangle-path" x="54.17084" y="0.154477612" width="4.50942" height="4.55297015"></rect>
                            <rect id="Rectangle-path" x="63.18832" y="0.154477612" width="4.50942" height="4.55297015"></rect>
                            <rect id="Rectangle-path" x="0.0459" y="9.26076119" width="4.50942" height="4.55297015"></rect>
                            <rect id="Rectangle-path" x="9.0661" y="9.26076119" width="4.50942" height="4.55297015"></rect>
                            <rect id="Rectangle-path" x="18.08426" y="9.26076119" width="4.51112" height="4.55297015"></rect>
                            <rect id="Rectangle-path" x="27.10582" y="9.26076119" width="4.50942" height="4.55297015"></rect>
                            <rect id="Rectangle-path" x="36.1267" y="9.26076119" width="4.50942" height="4.55297015"></rect>
                            <rect id="Rectangle-path" x="45.14486" y="9.26076119" width="4.51112" height="4.55297015"></rect>
                            <rect id="Rectangle-path" x="54.17084" y="9.26076119" width="4.50942" height="4.55297015"></rect>
                            <rect id="Rectangle-path" x="63.18832" y="9.26076119" width="4.50942" height="4.55297015"></rect>
                            <rect id="Rectangle-path" x="0.0459" y="18.372194" width="4.50942" height="4.55468657"></rect>
                            <rect id="Rectangle-path" x="9.0661" y="18.372194" width="4.50942" height="4.55468657"></rect>
                            <rect id="Rectangle-path" x="18.08426" y="18.372194" width="4.51112" height="4.55468657"></rect>
                            <rect id="Rectangle-path" x="27.10582" y="18.372194" width="4.50942" height="4.55468657"></rect>
                            <rect id="Rectangle-path" x="36.1267" y="18.372194" width="4.50942" height="4.55468657"></rect>
                            <rect id="Rectangle-path" x="45.14486" y="18.372194" width="4.51112" height="4.55468657"></rect>
                            <rect id="Rectangle-path" x="54.17084" y="18.372194" width="4.50942" height="4.55468657"></rect>
                            <rect id="Rectangle-path" x="63.18832" y="18.372194" width="4.50942" height="4.55468657"></rect>
                        </g>
                        <rect id="Rectangle-path" fill="#E66847" x="153" y="20" width="9" height="9"></rect>
                        <g id="Group" transform="translate(117.000000, 20.000000)" fill="#3F4A5A">
                            <rect id="Rectangle-path" x="18.6424" y="0.117" width="9.2834" height="8.84233333"></rect>
                            <rect id="Rectangle-path" x="0.07735" y="0.117" width="9.27885" height="8.84233333"></rect>
                        </g>
                        <path d="M175,101.377174 C175,103.921366 172.960498,106 170.467432,106 L4.53325195,106 C2.03881836,105.998955 0,103.920321 0,101.377174 L0,61.6256134 C0,59.0814215 2.03881836,57 4.53325195,57 L170.467432,57 C172.960156,57 175,59.081073 175,61.6256134 L175,101.377174 Z" id="Shape" fill="#E6E5E5"></path>
                        <g id="Group" transform="translate(12.000000, 69.000000)" fill="#CCCBCA">
                            <rect id="Rectangle-path" x="0.0459" y="0.203223881" width="4.50942" height="4.55297015"></rect>
                            <rect id="Rectangle-path" x="9.0661" y="0.203223881" width="4.50942" height="4.55297015"></rect>
                            <rect id="Rectangle-path" x="18.08426" y="0.203223881" width="4.51112" height="4.55297015"></rect>
                            <rect id="Rectangle-path" x="27.10582" y="0.203223881" width="4.50942" height="4.55297015"></rect>
                            <rect id="Rectangle-path" x="36.1267" y="0.203223881" width="4.50942" height="4.55297015"></rect>
                            <rect id="Rectangle-path" x="45.14486" y="0.203223881" width="4.51112" height="4.55297015"></rect>
                            <rect id="Rectangle-path" x="54.17084" y="0.203223881" width="4.50942" height="4.55297015"></rect>
                            <rect id="Rectangle-path" x="63.18832" y="0.203223881" width="4.50942" height="4.55297015"></rect>
                            <rect id="Rectangle-path" x="0.0459" y="9.30779104" width="4.50942" height="4.55228358"></rect>
                            <rect id="Rectangle-path" x="9.0661" y="9.30779104" width="4.50942" height="4.55228358"></rect>
                            <rect id="Rectangle-path" x="18.08426" y="9.30779104" width="4.51112" height="4.55228358"></rect>
                            <rect id="Rectangle-path" x="27.10582" y="9.30779104" width="4.50942" height="4.55228358"></rect>
                            <rect id="Rectangle-path" x="36.1267" y="9.30779104" width="4.50942" height="4.55228358"></rect>
                            <rect id="Rectangle-path" x="45.14486" y="9.30779104" width="4.51112" height="4.55228358"></rect>
                            <rect id="Rectangle-path" x="54.17084" y="9.30779104" width="4.50942" height="4.55228358"></rect>
                            <rect id="Rectangle-path" x="63.18832" y="9.30779104" width="4.50942" height="4.55228358"></rect>
                            <rect id="Rectangle-path" x="0.0459" y="18.4120149" width="4.50942" height="4.55297015"></rect>
                            <rect id="Rectangle-path" x="9.0661" y="18.4120149" width="4.50942" height="4.55297015"></rect>
                            <rect id="Rectangle-path" x="18.08426" y="18.4120149" width="4.51112" height="4.55297015"></rect>
                            <rect id="Rectangle-path" x="27.10582" y="18.4120149" width="4.50942" height="4.55297015"></rect>
                            <rect id="Rectangle-path" x="36.1267" y="18.4120149" width="4.50942" height="4.55297015"></rect>
                            <rect id="Rectangle-path" x="45.14486" y="18.4120149" width="4.51112" height="4.55297015"></rect>
                            <rect id="Rectangle-path" x="54.17084" y="18.4120149" width="4.50942" height="4.55297015"></rect>
                            <rect id="Rectangle-path" x="63.18832" y="18.4120149" width="4.50942" height="4.55297015"></rect>
                        </g>
                        <g id="Group" transform="translate(135.000000, 77.000000)" fill="#3F4A5A">
                            <rect id="Rectangle-path" x="18.66655" y="0.172857143" width="9.2827" height="9.47392857"></rect>
                            <rect id="Rectangle-path" x="0.0924" y="0.172857143" width="9.2834" height="9.47392857"></rect>
                        </g>
                        <rect id="Rectangle-path" fill="#E66847" x="117" y="77" width="9" height="9"></rect>
                        <path d="M175,159.373696 C175,161.918268 172.960498,164 170.467432,164 L4.53325195,164 C2.03881836,163.998954 0,161.917571 0,159.373696 L0,119.623516 C0,117.078944 2.03881836,115 4.53325195,115 L170.467432,115 C172.960156,115 175,117.078944 175,119.623516 L175,159.373696 Z" id="Shape" fill="#E6E5E5"></path>
                        <g id="Group" transform="translate(12.000000, 127.000000)" fill="#CCCBCA">
                            <rect id="Rectangle-path" x="0.0459" y="0.239808824" width="4.50942" height="4.48770588"></rect>
                            <rect id="Rectangle-path" x="9.0661" y="0.239808824" width="4.50942" height="4.48770588"></rect>
                            <rect id="Rectangle-path" x="18.08426" y="0.239808824" width="4.51112" height="4.48770588"></rect>
                            <rect id="Rectangle-path" x="27.10582" y="0.239808824" width="4.50942" height="4.48770588"></rect>
                            <rect id="Rectangle-path" x="36.1267" y="0.239808824" width="4.50942" height="4.48770588"></rect>
                            <rect id="Rectangle-path" x="45.14486" y="0.239808824" width="4.51112" height="4.48770588"></rect>
                            <rect id="Rectangle-path" x="54.17084" y="0.239808824" width="4.50942" height="4.48770588"></rect>
                            <rect id="Rectangle-path" x="63.18832" y="0.239808824" width="4.50942" height="4.48770588"></rect>
                            <rect id="Rectangle-path" x="0.0459" y="9.21048529" width="4.50942" height="4.48973529"></rect>
                            <rect id="Rectangle-path" x="9.0661" y="9.21048529" width="4.50942" height="4.48973529"></rect>
                            <rect id="Rectangle-path" x="18.08426" y="9.21048529" width="4.51112" height="4.48973529"></rect>
                            <rect id="Rectangle-path" x="27.10582" y="9.21048529" width="4.50942" height="4.48973529"></rect>
                            <rect id="Rectangle-path" x="36.1267" y="9.21048529" width="4.50942" height="4.48973529"></rect>
                            <rect id="Rectangle-path" x="45.14486" y="9.21048529" width="4.51112" height="4.48973529"></rect>
                            <rect id="Rectangle-path" x="54.17084" y="9.21048529" width="4.50942" height="4.48973529"></rect>
                            <rect id="Rectangle-path" x="63.18832" y="9.21048529" width="4.50942" height="4.48973529"></rect>
                            <rect id="Rectangle-path" x="0.0459" y="18.1896176" width="4.50942" height="4.48702941"></rect>
                            <rect id="Rectangle-path" x="9.0661" y="18.1896176" width="4.50942" height="4.48702941"></rect>
                            <rect id="Rectangle-path" x="18.08426" y="18.1896176" width="4.51112" height="4.48702941"></rect>
                            <rect id="Rectangle-path" x="27.10582" y="18.1896176" width="4.50942" height="4.48702941"></rect>
                            <rect id="Rectangle-path" x="36.1267" y="18.1896176" width="4.50942" height="4.48702941"></rect>
                            <rect id="Rectangle-path" x="45.14486" y="18.1896176" width="4.51112" height="4.48702941"></rect>
                            <rect id="Rectangle-path" x="54.17084" y="18.1896176" width="4.50942" height="4.48702941"></rect>
                            <rect id="Rectangle-path" x="63.18832" y="18.1896176" width="4.50942" height="4.48702941"></rect>
                        </g>
                        <rect id="Rectangle-path" fill="#3F4A5A" x="153" y="135" width="9" height="9"></rect>
                        <rect id="Rectangle-path" fill="#E66847" x="135" y="135" width="9" height="9"></rect>
                        <rect id="Rectangle-path" fill="#3F4A5A" x="117" y="135" width="9" height="9"></rect>
                    </g>
                </g>
                <g id="Monitor" filter="url(#filter-2)" transform="translate(175.000000, 19.000000)">
                    <polygon id="Shape" fill="#CDD3DA" fill-rule="nonzero" points="322 352 182 352 194.70203 296 309.245784 296"></polygon>
                    <polygon id="Shape" fill="#AAB5BD" fill-rule="nonzero" points="321 352 308.275638 296 194 296 285.387896 352"></polygon>
                    <g id="Group" transform="translate(0.000000, 260.000000)" fill-rule="nonzero" fill="#E6EAEE">
                        <path d="M358.739207,99.7610687 L144.215602,99.7610687 L144.215602,96.729771 C144.215602,95.4206107 144.862035,94.119084 146.145078,93.1221374 C147.422227,92.1335878 149.100203,91.6312977 150.775232,91.6312977 L352.16877,91.6312977 C353.85657,91.6312977 355.536512,92.1335878 356.81366,93.1221374 C358.085896,94.119084 358.743137,95.4206107 358.743137,96.729771 L358.743137,99.7610687 L358.739207,99.7610687 Z" id="Shape"></path>
                        <path d="M503,0.524427481 L503,26.7908397 C503,32.0335878 497.484684,36.2923664 490.734463,36.2923664 L12.2380293,36.2923664 C5.53791211,36.2923664 0,32.0320611 0,26.7908397 L0,0.524427481 L503,0.524427481 Z" id="Shape"></path>
                    </g>
                    <path d="M503,9.55886296 C503,4.32780451 497.489477,0 490.729287,0 L12.2127487,0 C5.4948036,0 0,4.32857063 0,9.55886296 L0,259.998468 L503,259.998468 L503,9.55886296 Z" id="Shape" fill="#7A93AC" fill-rule="nonzero"></path>
                    <rect id="Rectangle-path" fill="#F6F8FB" fill-rule="nonzero" x="26" y="20" width="452" height="220"></rect>
                    <g id="Group" transform="translate(41.000000, 199.000000)" fill-rule="nonzero" fill="#AAB5BD">
                        <rect id="Rectangle-path" x="0.940135198" y="0.477853659" width="420.024536" height="9.50565854" rx="2"></rect>
                        <rect id="Rectangle-path" x="0.940135198" y="21.266" width="420.024536" height="9.51926829" rx="2"></rect>
                    </g>
                    <g id="Group" transform="translate(41.000000, 132.000000)" fill-rule="nonzero" fill="#FFD97C">
                        <rect id="Rectangle-path" x="0.940135198" y="0.061369863" width="124.944753" height="55.7238356" rx="2"></rect>
                        <rect id="Rectangle-path" x="148.485424" y="0.061369863" width="124.947697" height="55.7238356" rx="2"></rect>
                        <rect id="Rectangle-path" x="296.030713" y="0.061369863" width="124.944753" height="55.7238356" rx="2"></rect>
                    </g>
                    <rect id="Rectangle-path" fill="#AAB5BD" fill-rule="nonzero" x="42" y="75" width="421" height="46" rx="2"></rect>
                    <rect id="Rectangle-path" fill="#D48A7E" fill-rule="nonzero" x="87" y="43" width="375" height="21" rx="2"></rect>
                    <circle id="Oval-3" fill="#89BC95" cx="60.5" cy="53.5" r="10.5"></circle>
                    <g id="Group-3" transform="translate(26.000000, 20.000000)">
                        <rect id="Rectangle-2" fill="#D8D8D8" x="0" y="0" width="452" height="12"></rect>
                        <circle id="Oval-2" fill="#FC8686" cx="8" cy="6" r="3"></circle>
                        <circle id="Oval-2" fill="#E9D059" cx="18" cy="6" r="3"></circle>
                        <circle id="Oval-2" fill="#7CC875" cx="28" cy="6" r="3"></circle>
                    </g>
                </g>
                <g id="Front-Page" filter="url(#filter-3)" transform="translate(403.000000, 99.000000)">
                    <rect id="Rectangle-path" fill="#F6F8FB" fill-rule="nonzero" x="0" y="0" width="452" height="236"></rect>
                    <rect id="Rectangle-2" fill="#D8D8D8" x="0" y="0" width="452" height="12"></rect>
                    <circle id="Oval-2" fill="#FC8686" cx="8" cy="6" r="3"></circle>
                    <circle id="Oval-2" fill="#E9D059" cx="18" cy="6" r="3"></circle>
                    <circle id="Oval-2" fill="#7CC875" cx="28" cy="6" r="3"></circle>
                    <g id="Profile-1" transform="translate(163.000000, 31.000000)">
                        <rect id="Rectangle-3" fill="#D4D7E5" x="0" y="1" width="126" height="185" rx="2"></rect>
                        <rect id="Rectangle-4" fill="#94B5CD" x="0" y="0" width="126" height="40" rx="2"></rect>
                        <rect id="Rectangle-5" fill="#5874BE" x="9" y="49" width="79" height="12"></rect>
                        <rect id="Rectangle-5" fill="#94B5CD" x="9" y="128" width="29" height="48"></rect>
                        <rect id="Rectangle-5" fill="#94B5CD" x="48" y="128" width="29" height="48"></rect>
                        <rect id="Rectangle-5" fill="#94B5CD" x="87" y="128" width="29" height="48"></rect>
                        <rect id="Rectangle-5" fill="#5874BE" x="10" y="92" width="3" height="3"></rect>
                        <rect id="Rectangle-5" fill="#5874BE" x="10" y="109" width="3" height="3"></rect>
                        <rect id="Rectangle-5" fill="#5874BE" x="9" y="68" width="107" height="1"></rect>
                        <rect id="Rectangle-5" fill="#5874BE" x="9" y="76" width="107" height="1"></rect>
                        <rect id="Rectangle-5" fill="#5874BE" x="9" y="84" width="107" height="1"></rect>
                        <rect id="Rectangle-5" fill="#9FAFDA" x="17" y="93" width="72" height="1"></rect>
                        <rect id="Rectangle-5" fill="#9FAFDA" x="17" y="98" width="80" height="1"></rect>
                        <rect id="Rectangle-5" fill="#9FAFDA" x="17" y="110" width="80" height="1"></rect>
                        <rect id="Rectangle-5" fill="#5874BE" x="10" y="118" width="3" height="3"></rect>
                        <rect id="Rectangle-5" fill="#9FAFDA" x="17" y="119" width="80" height="1"></rect>
                        <rect id="Rectangle-5" fill="#9FAFDA" x="17" y="103" width="61" height="1"></rect>
                        <g id="avatar" transform="translate(49.000000, 6.000000)" fill-rule="nonzero">
                            <circle id="Oval" fill="#D8D8DF" cx="14.5" cy="14.5" r="14.5"></circle>
                            <path d="M14.4999702,21.8209186 C12.8348638,21.8209186 11.3241481,21.1249274 10.2095088,20 C10.2086746,20.6741671 10.1835288,21.6471965 10,22.357176 C10.1203663,22.4288589 10.2137991,22.5465116 10.2320328,22.6928956 C10.4699051,24.5783578 12.3045372,26 14.4999702,26 C16.6949265,26 18.5295586,24.5781836 18.7679076,22.6928956 C18.7863797,22.5463375 18.8777865,22.4288589 19,22.3574082 C18.8164712,21.6473707 18.7912658,20.6742251 18.7904316,20 C17.6757923,21.1249274 16.1650766,21.8209186 14.4999702,21.8209186 Z" id="Shape" fill="#F4F0E6"></path>
                            <path d="M19,20.0885434 C17.8562473,21.196955 16.3336485,21.8819662 14.6565885,21.8819662 C12.9335293,21.8819662 11.3702341,21.1626414 10.2168006,20 C10.2159374,20.696769 10.1899163,21.7024199 10,22.436202 C10.1245555,22.5102881 10.2212402,22.6318852 10.2401085,22.7831768 C10.3489405,23.6445548 10.7813701,24.4115106 11.4254208,25 C14.3955152,24.5931565 17.766592,21.7399129 19,20.0885434 Z" id="Shape" fill="#D7DBE0"></path>
                            <path d="M19,10 L10.5,10 C9.1215625,10 8,11.0767 8,12.4 L8,15.28 C8,18.98548 10.916,22 14.5,22 C18.084,22 21,18.98548 21,15.28 L21,11.92 C21,10.86136 20.103,10 19,10 Z" id="Shape" fill="#F4F0E6"></path>
                            <path d="M18.5,4 L12,4 C11.0595625,4 10.2690625,4.60154449 10.056125,5.40900184 C8.3349375,5.61076533 7,6.96957123 7,8.61041955 L7,10.9156293 C7,12.1037921 7.547,13.2122522 8.5,14 L8.5,11.3766713 C8.5,10.1056362 9.6215625,9.0714615 11,9.0714615 L19.5,9.0714615 C20.603,9.0714615 21.5,9.89874366 21.5,10.9156293 L21.5,13.9994813 C22.4531875,13.2118488 23,12.1035039 23,10.9156293 L23,8.14937759 C23,5.86151452 20.9814375,4 18.5,4 Z" id="Shape" fill="#5C546A"></path>
                            <path d="M4,24.0340633 C6.70917429,27.0824619 10.6331909,29 15,29 C19.3668091,29 23.2908257,27.0824619 26,24.0340633 C25.5276058,23.3868215 24.8614438,22.8609532 24.0048439,22.6178938 C23.9851094,22.6122689 23.9653133,22.6078939 23.9450854,22.6049565 L20.0068846,22.0060891 C19.9827716,22.0024016 19.9312152,22.0004642 19.9066705,22.0004642 C19.6575843,22.0004642 19.4475354,22.1887118 19.417132,22.4393961 C19.170451,24.4693702 17.2716855,26.0004132 15,26.0004132 C12.7278211,26.0004132 10.8290557,24.4696827 10.582868,22.4393961 C10.5520329,22.1813369 10.3226812,21.9872768 10.0808105,22.0006517 C10.0518871,21.9989642 10.0234571,22.0014017 9.99311536,22.0060266 L6.05491456,22.604894 C6.03468672,22.6078314 6.01495223,22.6122064 5.99515608,22.6178313 C5.13855624,22.8610157 4.47239415,23.3868215 4,24.0340633 Z" id="Shape" fill="#5C546A"></path>
                        </g>
                    </g>
                    <g id="Profile-2" transform="translate(301.000000, 31.000000)">
                        <rect id="Rectangle-3" fill="#D4D7E5" x="0" y="1" width="126" height="185" rx="2"></rect>
                        <rect id="Rectangle-4" fill="#94CDA3" x="0" y="0" width="126" height="40" rx="2"></rect>
                        <rect id="Rectangle-5" fill="#5874BE" x="9" y="49" width="79" height="12"></rect>
                        <rect id="Rectangle-5" fill="#94CDA3" x="9" y="128" width="29" height="48"></rect>
                        <rect id="Rectangle-5" fill="#94CDA3" x="48" y="128" width="29" height="48"></rect>
                        <rect id="Rectangle-5" fill="#94CDA3" x="87" y="128" width="29" height="48"></rect>
                        <rect id="Rectangle-5" fill="#5874BE" x="10" y="92" width="3" height="3"></rect>
                        <rect id="Rectangle-5" fill="#5874BE" x="10" y="109" width="3" height="3"></rect>
                        <rect id="Rectangle-5" fill="#5874BE" x="9" y="68" width="107" height="1"></rect>
                        <rect id="Rectangle-5" fill="#5874BE" x="9" y="76" width="107" height="1"></rect>
                        <rect id="Rectangle-5" fill="#5874BE" x="9" y="84" width="107" height="1"></rect>
                        <rect id="Rectangle-5" fill="#9FAFDA" x="17" y="93" width="72" height="1"></rect>
                        <rect id="Rectangle-5" fill="#9FAFDA" x="17" y="98" width="80" height="1"></rect>
                        <rect id="Rectangle-5" fill="#9FAFDA" x="17" y="110" width="80" height="1"></rect>
                        <rect id="Rectangle-5" fill="#5874BE" x="10" y="118" width="3" height="3"></rect>
                        <rect id="Rectangle-5" fill="#9FAFDA" x="17" y="119" width="80" height="1"></rect>
                        <rect id="Rectangle-5" fill="#9FAFDA" x="17" y="103" width="61" height="1"></rect>
                        <g id="avatar" transform="translate(49.000000, 6.000000)" fill-rule="nonzero">
                            <circle id="Oval" fill="#D8D8DF" cx="14.5" cy="14.5" r="14.5"></circle>
                            <path d="M14.4999702,21.8209186 C12.8348638,21.8209186 11.3241481,21.1249274 10.2095088,20 C10.2086746,20.6741671 10.1835288,21.6471965 10,22.357176 C10.1203663,22.4288589 10.2137991,22.5465116 10.2320328,22.6928956 C10.4699051,24.5783578 12.3045372,26 14.4999702,26 C16.6949265,26 18.5295586,24.5781836 18.7679076,22.6928956 C18.7863797,22.5463375 18.8777865,22.4288589 19,22.3574082 C18.8164712,21.6473707 18.7912658,20.6742251 18.7904316,20 C17.6757923,21.1249274 16.1650766,21.8209186 14.4999702,21.8209186 Z" id="Shape" fill="#F4F0E6"></path>
                            <path d="M19,20.0885434 C17.8562473,21.196955 16.3336485,21.8819662 14.6565885,21.8819662 C12.9335293,21.8819662 11.3702341,21.1626414 10.2168006,20 C10.2159374,20.696769 10.1899163,21.7024199 10,22.436202 C10.1245555,22.5102881 10.2212402,22.6318852 10.2401085,22.7831768 C10.3489405,23.6445548 10.7813701,24.4115106 11.4254208,25 C14.3955152,24.5931565 17.766592,21.7399129 19,20.0885434 Z" id="Shape" fill="#D7DBE0"></path>
                            <path d="M19,10 L10.5,10 C9.1215625,10 8,11.0767 8,12.4 L8,15.28 C8,18.98548 10.916,22 14.5,22 C18.084,22 21,18.98548 21,15.28 L21,11.92 C21,10.86136 20.103,10 19,10 Z" id="Shape" fill="#F4F0E6"></path>
                            <path d="M18.5,4 L12,4 C11.0595625,4 10.2690625,4.60154449 10.056125,5.40900184 C8.3349375,5.61076533 7,6.96957123 7,8.61041955 L7,10.9156293 C7,12.1037921 7.547,13.2122522 8.5,14 L8.5,11.3766713 C8.5,10.1056362 9.6215625,9.0714615 11,9.0714615 L19.5,9.0714615 C20.603,9.0714615 21.5,9.89874366 21.5,10.9156293 L21.5,13.9994813 C22.4531875,13.2118488 23,12.1035039 23,10.9156293 L23,8.14937759 C23,5.86151452 20.9814375,4 18.5,4 Z" id="Shape" fill="#5C546A"></path>
                            <path d="M4,24.0340633 C6.70917429,27.0824619 10.6331909,29 15,29 C19.3668091,29 23.2908257,27.0824619 26,24.0340633 C25.5276058,23.3868215 24.8614438,22.8609532 24.0048439,22.6178938 C23.9851094,22.6122689 23.9653133,22.6078939 23.9450854,22.6049565 L20.0068846,22.0060891 C19.9827716,22.0024016 19.9312152,22.0004642 19.9066705,22.0004642 C19.6575843,22.0004642 19.4475354,22.1887118 19.417132,22.4393961 C19.170451,24.4693702 17.2716855,26.0004132 15,26.0004132 C12.7278211,26.0004132 10.8290557,24.4696827 10.582868,22.4393961 C10.5520329,22.1813369 10.3226812,21.9872768 10.0808105,22.0006517 C10.0518871,21.9989642 10.0234571,22.0014017 9.99311536,22.0060266 L6.05491456,22.604894 C6.03468672,22.6078314 6.01495223,22.6122064 5.99515608,22.6178313 C5.13855624,22.8610157 4.47239415,23.3868215 4,24.0340633 Z" id="Shape" fill="#5C546A"></path>
                        </g>
                    </g>
                    <g id="Profile-3" transform="translate(25.000000, 31.000000)">
                        <rect id="Rectangle-3" fill="#D4D7E5" x="0" y="1" width="126" height="185" rx="2"></rect>
                        <rect id="Rectangle-4" fill="#CDCA94" x="0" y="0" width="126" height="40" rx="2"></rect>
                        <rect id="Rectangle-5" fill="#5874BE" x="9" y="49" width="79" height="12"></rect>
                        <rect id="Rectangle-5" fill="#CDCA94" x="9" y="128" width="29" height="48"></rect>
                        <rect id="Rectangle-5" fill="#CDCA94" x="48" y="128" width="29" height="48"></rect>
                        <rect id="Rectangle-5" fill="#CDCA94" x="87" y="128" width="29" height="48"></rect>
                        <rect id="Rectangle-5" fill="#5874BE" x="10" y="92" width="3" height="3"></rect>
                        <rect id="Rectangle-5" fill="#5874BE" x="10" y="109" width="3" height="3"></rect>
                        <rect id="Rectangle-5" fill="#5874BE" x="9" y="68" width="107" height="1"></rect>
                        <rect id="Rectangle-5" fill="#5874BE" x="9" y="76" width="107" height="1"></rect>
                        <rect id="Rectangle-5" fill="#5874BE" x="9" y="84" width="107" height="1"></rect>
                        <rect id="Rectangle-5" fill="#9FAFDA" x="17" y="93" width="72" height="1"></rect>
                        <rect id="Rectangle-5" fill="#9FAFDA" x="17" y="98" width="80" height="1"></rect>
                        <rect id="Rectangle-5" fill="#9FAFDA" x="17" y="110" width="80" height="1"></rect>
                        <rect id="Rectangle-5" fill="#5874BE" x="10" y="118" width="3" height="3"></rect>
                        <rect id="Rectangle-5" fill="#9FAFDA" x="17" y="119" width="80" height="1"></rect>
                        <rect id="Rectangle-5" fill="#9FAFDA" x="17" y="103" width="61" height="1"></rect>
                        <g id="avatar" transform="translate(49.000000, 6.000000)" fill-rule="nonzero">
                            <circle id="Oval" fill="#D8D8DF" cx="14.5" cy="14.5" r="14.5"></circle>
                            <path d="M14.4999702,21.8209186 C12.8348638,21.8209186 11.3241481,21.1249274 10.2095088,20 C10.2086746,20.6741671 10.1835288,21.6471965 10,22.357176 C10.1203663,22.4288589 10.2137991,22.5465116 10.2320328,22.6928956 C10.4699051,24.5783578 12.3045372,26 14.4999702,26 C16.6949265,26 18.5295586,24.5781836 18.7679076,22.6928956 C18.7863797,22.5463375 18.8777865,22.4288589 19,22.3574082 C18.8164712,21.6473707 18.7912658,20.6742251 18.7904316,20 C17.6757923,21.1249274 16.1650766,21.8209186 14.4999702,21.8209186 Z" id="Shape" fill="#F4F0E6"></path>
                            <path d="M19,20.0885434 C17.8562473,21.196955 16.3336485,21.8819662 14.6565885,21.8819662 C12.9335293,21.8819662 11.3702341,21.1626414 10.2168006,20 C10.2159374,20.696769 10.1899163,21.7024199 10,22.436202 C10.1245555,22.5102881 10.2212402,22.6318852 10.2401085,22.7831768 C10.3489405,23.6445548 10.7813701,24.4115106 11.4254208,25 C14.3955152,24.5931565 17.766592,21.7399129 19,20.0885434 Z" id="Shape" fill="#D7DBE0"></path>
                            <path d="M19,10 L10.5,10 C9.1215625,10 8,11.0767 8,12.4 L8,15.28 C8,18.98548 10.916,22 14.5,22 C18.084,22 21,18.98548 21,15.28 L21,11.92 C21,10.86136 20.103,10 19,10 Z" id="Shape" fill="#F4F0E6"></path>
                            <path d="M18.5,4 L12,4 C11.0595625,4 10.2690625,4.60154449 10.056125,5.40900184 C8.3349375,5.61076533 7,6.96957123 7,8.61041955 L7,10.9156293 C7,12.1037921 7.547,13.2122522 8.5,14 L8.5,11.3766713 C8.5,10.1056362 9.6215625,9.0714615 11,9.0714615 L19.5,9.0714615 C20.603,9.0714615 21.5,9.89874366 21.5,10.9156293 L21.5,13.9994813 C22.4531875,13.2118488 23,12.1035039 23,10.9156293 L23,8.14937759 C23,5.86151452 20.9814375,4 18.5,4 Z" id="Shape" fill="#5C546A"></path>
                            <path d="M4,24.0340633 C6.70917429,27.0824619 10.6331909,29 15,29 C19.3668091,29 23.2908257,27.0824619 26,24.0340633 C25.5276058,23.3868215 24.8614438,22.8609532 24.0048439,22.6178938 C23.9851094,22.6122689 23.9653133,22.6078939 23.9450854,22.6049565 L20.0068846,22.0060891 C19.9827716,22.0024016 19.9312152,22.0004642 19.9066705,22.0004642 C19.6575843,22.0004642 19.4475354,22.1887118 19.417132,22.4393961 C19.170451,24.4693702 17.2716855,26.0004132 15,26.0004132 C12.7278211,26.0004132 10.8290557,24.4696827 10.582868,22.4393961 C10.5520329,22.1813369 10.3226812,21.9872768 10.0808105,22.0006517 C10.0518871,21.9989642 10.0234571,22.0014017 9.99311536,22.0060266 L6.05491456,22.604894 C6.03468672,22.6078314 6.01495223,22.6122064 5.99515608,22.6178313 C5.13855624,22.8610157 4.47239415,23.3868215 4,24.0340633 Z" id="Shape" fill="#5C546A"></path>
                        </g>
                    </g>
                </g>
            </g>
        </g>
    </g>
</svg>