<?xml version="1.0" encoding="UTF-8"?>
<svg width="861px" height="398px" viewBox="0 0 861 398" version="1.1" xmlns="http://www.w3.org/2000/svg" xmlns:xlink="http://www.w3.org/1999/xlink">
    <!-- Generator: Sketch 47 (45396) - http://www.bohemiancoding.com/sketch -->
    <title>Pages</title>
    <desc>Created with Sketch.</desc>
    <defs>
        <filter x="-1.2%" y="-1.6%" width="102.3%" height="104.4%" filterUnits="objectBoundingBox" id="filter-1">
            <feOffset dx="0" dy="1.5" in="SourceAlpha" result="shadowOffsetOuter1"></feOffset>
            <feGaussianBlur stdDeviation="1.5" in="shadowOffsetOuter1" result="shadowBlurOuter1"></feGaussianBlur>
            <feColorMatrix values="0 0 0 0 0   0 0 0 0 0   0 0 0 0 0  0 0 0 0.5 0" type="matrix" in="shadowBlurOuter1" result="shadowMatrixOuter1"></feColorMatrix>
            <feMerge>
                <feMergeNode in="shadowMatrixOuter1"></feMergeNode>
                <feMergeNode in="SourceGraphic"></feMergeNode>
            </feMerge>
        </filter>
        <filter x="-1.1%" y="-1.0%" width="102.2%" height="102.6%" filterUnits="objectBoundingBox" id="filter-2">
            <feOffset dx="0" dy="1" in="SourceAlpha" result="shadowOffsetOuter1"></feOffset>
            <feGaussianBlur stdDeviation="1.5" in="shadowOffsetOuter1" result="shadowBlurOuter1"></feGaussianBlur>
            <feColorMatrix values="0 0 0 0 0   0 0 0 0 0   0 0 0 0 0  0 0 0 0.5 0" type="matrix" in="shadowBlurOuter1" result="shadowMatrixOuter1"></feColorMatrix>
            <feMerge>
                <feMergeNode in="shadowMatrixOuter1"></feMergeNode>
                <feMergeNode in="SourceGraphic"></feMergeNode>
            </feMerge>
        </filter>
        <filter x="-1.2%" y="-1.6%" width="102.3%" height="104.4%" filterUnits="objectBoundingBox" id="filter-3">
            <feOffset dx="0" dy="1.5" in="SourceAlpha" result="shadowOffsetOuter1"></feOffset>
            <feGaussianBlur stdDeviation="1.5" in="shadowOffsetOuter1" result="shadowBlurOuter1"></feGaussianBlur>
            <feColorMatrix values="0 0 0 0 0   0 0 0 0 0   0 0 0 0 0  0 0 0 0.5 0" type="matrix" in="shadowBlurOuter1" result="shadowMatrixOuter1"></feColorMatrix>
            <feMerge>
                <feMergeNode in="shadowMatrixOuter1"></feMergeNode>
                <feMergeNode in="SourceGraphic"></feMergeNode>
            </feMerge>
        </filter>
    </defs>
    <g id="Pages" stroke="none" stroke-width="1" fill="none" fill-rule="evenodd">
        <g id="About-Desktop-HD" transform="translate(-292.000000, -369.000000)">
            <g id="Pages" transform="translate(295.000000, 371.000000)">
                <g id="Back-Page" filter="url(#filter-1)" transform="translate(0.000000, 6.000000)">
                    <rect id="Rectangle-path" fill="#F6F8FB" fill-rule="nonzero" x="0" y="0" width="452" height="236"></rect>
                    <rect id="Rectangle-2" fill="#D8D8D8" x="0" y="0" width="452" height="12"></rect>
                    <circle id="Oval-2" fill="#FC8686" cx="8" cy="6" r="3"></circle>
                    <circle id="Oval-2" fill="#E9D059" cx="18" cy="6" r="3"></circle>
                    <circle id="Oval-2" fill="#7CC875" cx="28" cy="6" r="3"></circle>
                    <g id="server" transform="translate(232.000000, 37.000000)" fill-rule="nonzero">
                        <rect id="Rectangle-path" fill="#3F4A5A" x="13" y="49" width="150" height="123"></rect>
                        <path d="M175,44.3773979 C175,46.9220423 172.960498,49 170.467432,49 L4.53325195,49 C2.03881836,49.0003485 0,46.9220423 0,44.3773979 L0,4.62434472 C0,2.0797004 2.03881836,0 4.53325195,0 L170.467432,0 C172.960156,0 175,2.080746 175,4.62434472 L175,44.3773979 Z" id="Shape" fill="#E6E5E5"></path>
                        <g id="Group" transform="translate(12.000000, 12.000000)" fill="#CCCBCA">
                            <rect id="Rectangle-path" x="0.0459" y="0.154477612" width="4.50942" height="4.55297015"></rect>
                            <rect id="Rectangle-path" x="9.0661" y="0.154477612" width="4.50942" height="4.55297015"></rect>
                            <rect id="Rectangle-path" x="18.08426" y="0.154477612" width="4.51112" height="4.55297015"></rect>
                            <rect id="Rectangle-path" x="27.10582" y="0.154477612" width="4.50942" height="4.55297015"></rect>
                            <rect id="Rectangle-path" x="36.1267" y="0.154477612" width="4.50942" height="4.55297015"></rect>
                            <rect id="Rectangle-path" x="45.14486" y="0.154477612" width="4.51112" height="4.55297015"></rect>
                            <rect id="Rectangle-path" x="54.17084" y="0.154477612" width="4.50942" height="4.55297015"></rect>
                            <rect id="Rectangle-path" x="63.18832" y="0.154477612" width="4.50942" height="4.55297015"></rect>
                            <rect id="Rectangle-path" x="0.0459" y="9.26076119" width="4.50942" height="4.55297015"></rect>
                            <rect id="Rectangle-path" x="9.0661" y="9.26076119" width="4.50942" height="4.55297015"></rect>
                            <rect id="Rectangle-path" x="18.08426" y="9.26076119" width="4.51112" height="4.55297015"></rect>
                            <rect id="Rectangle-path" x="27.10582" y="9.26076119" width="4.50942" height="4.55297015"></rect>
                            <rect id="Rectangle-path" x="36.1267" y="9.26076119" width="4.50942" height="4.55297015"></rect>
                            <rect id="Rectangle-path" x="45.14486" y="9.26076119" width="4.51112" height="4.55297015"></rect>
                            <rect id="Rectangle-path" x="54.17084" y="9.26076119" width="4.50942" height="4.55297015"></rect>
                            <rect id="Rectangle-path" x="63.18832" y="9.26076119" width="4.50942" height="4.55297015"></rect>
                            <rect id="Rectangle-path" x="0.0459" y="18.372194" width="4.50942" height="4.55468657"></rect>
                            <rect id="Rectangle-path" x="9.0661" y="18.372194" width="4.50942" height="4.55468657"></rect>
                            <rect id="Rectangle-path" x="18.08426" y="18.372194" width="4.51112" height="4.55468657"></rect>
                            <rect id="Rectangle-path" x="27.10582" y="18.372194" width="4.50942" height="4.55468657"></rect>
                            <rect id="Rectangle-path" x="36.1267" y="18.372194" width="4.50942" height="4.55468657"></rect>
                            <rect id="Rectangle-path" x="45.14486" y="18.372194" width="4.51112" height="4.55468657"></rect>
                            <rect id="Rectangle-path" x="54.17084" y="18.372194" width="4.50942" height="4.55468657"></rect>
                            <rect id="Rectangle-path" x="63.18832" y="18.372194" width="4.50942" height="4.55468657"></rect>
                        </g>
                        <rect id="Rectangle-path" fill="#E66847" x="153" y="20" width="9" height="9"></rect>
                        <g id="Group" transform="translate(117.000000, 20.000000)" fill="#3F4A5A">
                            <rect id="Rectangle-path" x="18.6424" y="0.117" width="9.2834" height="8.84233333"></rect>
                            <rect id="Rectangle-path" x="0.07735" y="0.117" width="9.27885" height="8.84233333"></rect>
                        </g>
                        <path d="M175,101.377174 C175,103.921366 172.960498,106 170.467432,106 L4.53325195,106 C2.03881836,105.998955 0,103.920321 0,101.377174 L0,61.6256134 C0,59.0814215 2.03881836,57 4.53325195,57 L170.467432,57 C172.960156,57 175,59.081073 175,61.6256134 L175,101.377174 Z" id="Shape" fill="#E6E5E5"></path>
                        <g id="Group" transform="translate(12.000000, 69.000000)" fill="#CCCBCA">
                            <rect id="Rectangle-path" x="0.0459" y="0.203223881" width="4.50942" height="4.55297015"></rect>
                            <rect id="Rectangle-path" x="9.0661" y="0.203223881" width="4.50942" height="4.55297015"></rect>
                            <rect id="Rectangle-path" x="18.08426" y="0.203223881" width="4.51112" height="4.55297015"></rect>
                            <rect id="Rectangle-path" x="27.10582" y="0.203223881" width="4.50942" height="4.55297015"></rect>
                            <rect id="Rectangle-path" x="36.1267" y="0.203223881" width="4.50942" height="4.55297015"></rect>
                            <rect id="Rectangle-path" x="45.14486" y="0.203223881" width="4.51112" height="4.55297015"></rect>
                            <rect id="Rectangle-path" x="54.17084" y="0.203223881" width="4.50942" height="4.55297015"></rect>
                            <rect id="Rectangle-path" x="63.18832" y="0.203223881" width="4.50942" height="4.55297015"></rect>
                            <rect id="Rectangle-path" x="0.0459" y="9.30779104" width="4.50942" height="4.55228358"></rect>
                            <rect id="Rectangle-path" x="9.0661" y="9.30779104" width="4.50942" height="4.55228358"></rect>
                            <rect id="Rectangle-path" x="18.08426" y="9.30779104" width="4.51112" height="4.55228358"></rect>
                            <rect id="Rectangle-path" x="27.10582" y="9.30779104" width="4.50942" height="4.55228358"></rect>
                            <rect id="Rectangle-path" x="36.1267" y="9.30779104" width="4.50942" height="4.55228358"></rect>
                            <rect id="Rectangle-path" x="45.14486" y="9.30779104" width="4.51112" height="4.55228358"></rect>
                            <rect id="Rectangle-path" x="54.17084" y="9.30779104" width="4.50942" height="4.55228358"></rect>
                            <rect id="Rectangle-path" x="63.18832" y="9.30779104" width="4.50942" height="4.55228358"></rect>
                            <rect id="Rectangle-path" x="0.0459" y="18.4120149" width="4.50942" height="4.55297015"></rect>
                            <rect id="Rectangle-path" x="9.0661" y="18.4120149" width="4.50942" height="4.55297015"></rect>
                            <rect id="Rectangle-path" x="18.08426" y="18.4120149" width="4.51112" height="4.55297015"></rect>
                            <rect id="Rectangle-path" x="27.10582" y="18.4120149" width="4.50942" height="4.55297015"></rect>
                            <rect id="Rectangle-path" x="36.1267" y="18.4120149" width="4.50942" height="4.55297015"></rect>
                            <rect id="Rectangle-path" x="45.14486" y="18.4120149" width="4.51112" height="4.55297015"></rect>
                            <rect id="Rectangle-path" x="54.17084" y="18.4120149" width="4.50942" height="4.55297015"></rect>
                            <rect id="Rectangle-path" x="63.18832" y="18.4120149" width="4.50942" height="4.55297015"></rect>
                        </g>
                        <g id="Group" transform="translate(135.000000, 77.000000)" fill="#3F4A5A">
                            <rect id="Rectangle-path" x="18.66655" y="0.172857143" width="9.2827" height="9.47392857"></rect>
                            <rect id="Rectangle-path" x="0.0924" y="0.172857143" width="9.2834" height="9.47392857"></rect>
                        </g>
                        <rect id="Rectangle-path" fill="#E66847" x="117" y="77" width="9" height="9"></rect>
                        <path d="M175,159.373696 C175,161.918268 172.960498,164 170.467432,164 L4.53325195,164 C2.03881836,163.998954 0,161.917571 0,159.373696 L0,119.623516 C0,117.078944 2.03881836,115 4.53325195,115 L170.467432,115 C172.960156,115 175,117.078944 175,119.623516 L175,159.373696 Z" id="Shape" fill="#E6E5E5"></path>
                        <g id="Group" transform="translate(12.000000, 127.000000)" fill="#CCCBCA">
                            <rect id="Rectangle-path" x="0.0459" y="0.239808824" width="4.50942" height="4.48770588"></rect>
                            <rect id="Rectangle-path" x="9.0661" y="0.239808824" width="4.50942" height="4.48770588"></rect>
                            <rect id="Rectangle-path" x="18.08426" y="0.239808824" width="4.51112" height="4.48770588"></rect>
                            <rect id="Rectangle-path" x="27.10582" y="0.239808824" width="4.50942" height="4.48770588"></rect>
                            <rect id="Rectangle-path" x="36.1267" y="0.239808824" width="4.50942" height="4.48770588"></rect>
                            <rect id="Rectangle-path" x="45.14486" y="0.239808824" width="4.51112" height="4.48770588"></rect>
                            <rect id="Rectangle-path" x="54.17084" y="0.239808824" width="4.50942" height="4.48770588"></rect>
                            <rect id="Rectangle-path" x="63.18832" y="0.239808824" width="4.50942" height="4.48770588"></rect>
                            <rect id="Rectangle-path" x="0.0459" y="9.21048529" width="4.50942" height="4.48973529"></rect>
                            <rect id="Rectangle-path" x="9.0661" y="9.21048529" width="4.50942" height="4.48973529"></rect>
                            <rect id="Rectangle-path" x="18.08426" y="9.21048529" width="4.51112" height="4.48973529"></rect>
                            <rect id="Rectangle-path" x="27.10582" y="9.21048529" width="4.50942" height="4.48973529"></rect>
                            <rect id="Rectangle-path" x="36.1267" y="9.21048529" width="4.50942" height="4.48973529"></rect>
                            <rect id="Rectangle-path" x="45.14486" y="9.21048529" width="4.51112" height="4.48973529"></rect>
                            <rect id="Rectangle-path" x="54.17084" y="9.21048529" width="4.50942" height="4.48973529"></rect>
                            <rect id="Rectangle-path" x="63.18832" y="9.21048529" width="4.50942" height="4.48973529"></rect>
                            <rect id="Rectangle-path" x="0.0459" y="18.1896176" width="4.50942" height="4.48702941"></rect>
                            <rect id="Rectangle-path" x="9.0661" y="18.1896176" width="4.50942" height="4.48702941"></rect>
                            <rect id="Rectangle-path" x="18.08426" y="18.1896176" width="4.51112" height="4.48702941"></rect>
                            <rect id="Rectangle-path" x="27.10582" y="18.1896176" width="4.50942" height="4.48702941"></rect>
                            <rect id="Rectangle-path" x="36.1267" y="18.1896176" width="4.50942" height="4.48702941"></rect>
                            <rect id="Rectangle-path" x="45.14486" y="18.1896176" width="4.51112" height="4.48702941"></rect>
                            <rect id="Rectangle-path" x="54.17084" y="18.1896176" width="4.50942" height="4.48702941"></rect>
                            <rect id="Rectangle-path" x="63.18832" y="18.1896176" width="4.50942" height="4.48702941"></rect>
                        </g>
                        <rect id="Rectangle-path" fill="#3F4A5A" x="153" y="135" width="9" height="9"></rect>
                        <rect id="Rectangle-path" fill="#E66847" x="135" y="135" width="9" height="9"></rect>
                        <rect id="Rectangle-path" fill="#3F4A5A" x="117" y="135" width="9" height="9"></rect>
                    </g>
                    <g id="chip" transform="translate(31.000000, 37.000000)" fill-rule="nonzero">
                        <path d="M162.444594,146.518469 C162.444594,142.120375 165.415625,138.416664 169.459977,137.304039 C170.914922,136.903937 172,135.700945 172,134.19225 L172,37.8074141 C172,36.2983828 170.914586,35.0960625 169.459977,34.695625 C165.415625,33.5836719 162.444594,29.879625 162.444594,25.4815312 C162.444594,21.0834375 165.415625,17.3797266 169.459977,16.2671016 C170.914922,15.867 172,14.6640078 172,13.1553125 L172,9.55540625 C172,4.27816406 167.721836,0 162.444594,0 L9.55540625,0 C4.27816406,0 0,4.27816406 0,9.55540625 L0,13.1553125 C0,14.6643437 1.08541406,15.8666641 2.54002344,16.2671016 C6.584375,17.3790547 9.55540625,21.0831016 9.55540625,25.4811953 C9.55540625,29.8792891 6.584375,33.583 2.54002344,34.695625 C1.08541406,35.0960625 0,36.2983828 0,37.8074141 L0,134.19225 C0,135.701281 1.08541406,136.903602 2.54002344,137.304039 C6.584375,138.416328 9.55540625,142.120375 9.55540625,146.518469 C9.55540625,150.916562 6.584375,154.620273 2.54002344,155.732898 C1.08541406,156.133 0,157.33532 0,158.844352 L0,162.444258 C0,167.721836 4.27816406,172 9.55540625,172 L162.444258,172 C167.721836,172 171.999664,167.721836 171.999664,162.444594 L171.999664,158.844687 C171.999664,157.335656 170.91425,156.133336 169.459641,155.732898 C165.415289,154.620273 162.444594,150.916562 162.444594,146.518469 Z" id="Shape" fill="#A6E98E"></path>
                        <rect id="Rectangle-path" fill="#E4EAF6" x="83" y="16" width="6" height="13"></rect>
                        <path d="M93,42 L80,42 L80,29.199865 C80,27.4326998 81.4550704,26 83.2498286,26 L89.7498286,26 C91.5445868,26 92.9996572,27.4326998 92.9996572,29.199865 L92.9996572,42 L93,42 Z" id="Shape" fill="#959CB3"></path>
                        <circle id="Oval" fill="#5B5D6E" cx="86" cy="15" r="5"></circle>
                        <rect id="Rectangle-path" fill="#E4EAF6" x="102" y="16" width="6" height="13"></rect>
                        <path d="M112,42 L99,42 L99,29.199865 C99,27.4326998 100.45507,26 102.249829,26 L108.749829,26 C110.544587,26 112,27.4326998 112,29.199865 L112,42 Z" id="Shape" fill="#959CB3"></path>
                        <circle id="Oval" fill="#5B5D6E" cx="106" cy="15" r="5"></circle>
                        <rect id="Rectangle-path" fill="#E4EAF6" x="121" y="16" width="6" height="13"></rect>
                        <path d="M131,42 L118,42 L118,29.199865 C118,27.4326998 119.45507,26 121.249829,26 L127.749829,26 C129.544587,26 130.999657,27.4326998 130.999657,29.199865 L130.999657,42 L131,42 Z" id="Shape" fill="#959CB3"></path>
                        <circle id="Oval" fill="#5B5D6E" cx="125" cy="15" r="5"></circle>
                        <rect id="Rectangle-path" fill="#E4EAF6" x="44" y="16" width="6" height="13"></rect>
                        <path d="M55,42 L42,42 L42,29.199865 C42,27.4326998 43.4550704,26 45.2498286,26 L51.7498286,26 C53.5445868,26 54.9996572,27.4326998 54.9996572,29.199865 L54.9996572,42 L55,42 Z" id="Shape" fill="#959CB3"></path>
                        <circle id="Oval" fill="#5B5D6E" cx="48" cy="15" r="5"></circle>
                        <rect id="Rectangle-path" fill="#E4EAF6" x="63" y="16" width="6" height="13"></rect>
                        <path d="M73,42 L60,42 L60,29.199865 C60,27.4326998 61.4550704,26 63.2498286,26 L69.7498286,26 C71.5445868,26 72.9996572,27.4326998 72.9996572,29.199865 L72.9996572,42 L73,42 Z" id="Shape" fill="#959CB3"></path>
                        <circle id="Oval" fill="#5B5D6E" cx="67" cy="15" r="5"></circle>
                        <rect id="Rectangle-path" fill="#E4EAF6" x="83" y="143" width="6" height="13"></rect>
                        <path d="M80,130 L93,130 L93,142.799865 C93,144.566993 91.5449296,146 89.7501714,146 L83.2501714,146 C81.4554132,146 80.0003428,144.56733 80.0003428,142.799865 L80.0003428,130 L80,130 Z" id="Shape" fill="#959CB3"></path>
                        <circle id="Oval" fill="#5B5D6E" cx="86" cy="158" r="5"></circle>
                        <rect id="Rectangle-path" fill="#E4EAF6" x="63" y="143" width="6" height="13"></rect>
                        <path d="M60,130 L73,130 L73,142.799865 C73,144.566993 71.5449296,146 69.7501714,146 L63.2501714,146 C61.4554132,146 60.0003428,144.56733 60.0003428,142.799865 L60.0003428,130 L60,130 Z" id="Shape" fill="#959CB3"></path>
                        <circle id="Oval" fill="#5B5D6E" cx="67" cy="158" r="5"></circle>
                        <rect id="Rectangle-path" fill="#E4EAF6" x="44" y="143" width="6" height="13"></rect>
                        <path d="M42,130 L55,130 L55,142.799865 C55,144.566993 53.5449296,146 51.7501714,146 L45.2501714,146 C43.4554132,146 42.0003428,144.56733 42.0003428,142.799865 L42.0003428,130 L42,130 Z" id="Shape" fill="#959CB3"></path>
                        <circle id="Oval" fill="#5B5D6E" cx="48" cy="158" r="5"></circle>
                        <rect id="Rectangle-path" fill="#E4EAF6" x="121" y="143" width="6" height="13"></rect>
                        <path d="M118,130 L131,130 L131,142.799865 C131,144.566993 129.54493,146 127.750171,146 L121.250171,146 C119.455413,146 118.000343,144.56733 118.000343,142.799865 L118.000343,130 L118,130 Z" id="Shape" fill="#959CB3"></path>
                        <circle id="Oval" fill="#5B5D6E" cx="125" cy="158" r="5"></circle>
                        <rect id="Rectangle-path" fill="#E4EAF6" x="102" y="143" width="6" height="13"></rect>
                        <path d="M99,130 L112,130 L112,142.799865 C112,144.566993 110.54493,146 108.749829,146 L102.249829,146 C100.45507,146 99,144.56733 99,142.799865 L99,130 Z" id="Shape" fill="#959CB3"></path>
                        <circle id="Oval" fill="#5B5D6E" cx="106" cy="158" r="5"></circle>
                        <rect id="Rectangle-path" fill="#E4EAF6" x="16" y="83" width="13" height="6"></rect>
                        <path d="M42,80 L42,93 L29.199865,93 C27.4326998,93 26,91.5449296 26,89.7501714 L26,83.2501714 C26,81.4554132 27.4326998,80.0003428 29.199865,80.0003428 L42,80.0003428 L42,80 Z" id="Shape" fill="#959CB3"></path>
                        <circle id="Oval" fill="#5B5D6E" cx="15" cy="86" r="5"></circle>
                        <rect id="Rectangle-path" fill="#E4EAF6" x="16" y="63" width="13" height="6"></rect>
                        <path d="M42,60 L42,73 L29.199865,73 C27.4326998,73 26,71.5449296 26,69.7501714 L26,63.2501714 C26,61.4554132 27.4326998,60.0003428 29.199865,60.0003428 L42,60.0003428 L42,60 Z" id="Shape" fill="#959CB3"></path>
                        <circle id="Oval" fill="#5B5D6E" cx="15" cy="67" r="5"></circle>
                        <rect id="Rectangle-path" fill="#E4EAF6" x="16" y="44" width="13" height="6"></rect>
                        <path d="M42,42 L42,55 L29.199865,55 C27.4326998,55 26,53.5449296 26,51.7501714 L26,45.2501714 C26,43.4554132 27.4326998,42.0003428 29.199865,42.0003428 L42,42.0003428 L42,42 Z" id="Shape" fill="#959CB3"></path>
                        <circle id="Oval" fill="#5B5D6E" cx="15" cy="48" r="5"></circle>
                        <rect id="Rectangle-path" fill="#E4EAF6" x="16" y="121" width="13" height="6"></rect>
                        <path d="M42,118 L42,131 L29.199865,131 C27.4326998,131 26,129.54493 26,127.750171 L26,121.250171 C26,119.455413 27.4326998,118.000343 29.199865,118.000343 L42,118.000343 L42,118 Z" id="Shape" fill="#959CB3"></path>
                        <circle id="Oval" fill="#5B5D6E" cx="15" cy="125" r="5"></circle>
                        <rect id="Rectangle-path" fill="#E4EAF6" x="16" y="102" width="13" height="6"></rect>
                        <path d="M42,99 L42,112 L29.199865,112 C27.4326998,112 26,110.54493 26,108.749829 L26,102.249829 C26,100.45507 27.4326998,99 29.199865,99 L42,99 Z" id="Shape" fill="#959CB3"></path>
                        <circle id="Oval" fill="#5B5D6E" cx="15" cy="106" r="5"></circle>
                        <rect id="Rectangle-path" fill="#E4EAF6" x="143" y="83" width="13" height="6"></rect>
                        <path d="M130,93 L130,80 L142.799865,80 C144.566993,80 146,81.4550704 146,83.2498286 L146,89.7498286 C146,91.5445868 144.56733,92.9996572 142.799865,92.9996572 L130,92.9996572 L130,93 Z" id="Shape" fill="#959CB3"></path>
                        <circle id="Oval" fill="#5B5D6E" cx="158" cy="86" r="5"></circle>
                        <rect id="Rectangle-path" fill="#E4EAF6" x="143" y="102" width="13" height="6"></rect>
                        <path d="M130,112 L130,99 L142.799865,99 C144.566993,99 146,100.45507 146,102.249829 L146,108.749829 C146,110.544587 144.56733,112 142.799865,112 L130,112 Z" id="Shape" fill="#959CB3"></path>
                        <circle id="Oval" fill="#5B5D6E" cx="158" cy="106" r="5"></circle>
                        <rect id="Rectangle-path" fill="#E4EAF6" x="143" y="121" width="13" height="6"></rect>
                        <path d="M130,131 L130,118 L142.799865,118 C144.566993,118 146,119.45507 146,121.249829 L146,127.749829 C146,129.544587 144.56733,130.999657 142.799865,130.999657 L130,130.999657 L130,131 Z" id="Shape" fill="#959CB3"></path>
                        <circle id="Oval" fill="#5B5D6E" cx="158" cy="125" r="5"></circle>
                        <rect id="Rectangle-path" fill="#E4EAF6" x="143" y="44" width="13" height="6"></rect>
                        <path d="M130,55 L130,42 L142.799865,42 C144.566993,42 146,43.4550704 146,45.2498286 L146,51.7498286 C146,53.5445868 144.56733,54.9996572 142.799865,54.9996572 L130,54.9996572 L130,55 Z" id="Shape" fill="#959CB3"></path>
                        <circle id="Oval" fill="#5B5D6E" cx="158" cy="48" r="5"></circle>
                        <rect id="Rectangle-path" fill="#E4EAF6" x="143" y="63" width="13" height="6"></rect>
                        <path d="M130,73 L130,60 L142.799865,60 C144.566993,60 146,61.4550704 146,63.2498286 L146,69.7498286 C146,71.5445868 144.56733,72.9996572 142.799865,72.9996572 L130,72.9996572 L130,73 Z" id="Shape" fill="#959CB3"></path>
                        <g id="Group" transform="translate(35.000000, 35.000000)" fill="#5B5D6E">
                            <ellipse id="Oval" cx="123.059537" cy="31.9122434" rx="4.79056842" ry="4.77185526"></ellipse>
                            <path d="M95.9127579,101.900684 L6.48724211,101.900684 C2.95949474,101.900684 0.0997052632,99.0524013 0.0997052632,95.5380987 L0.0997052632,6.46190132 C0.0997052632,2.94793421 2.95915789,0.0993157895 6.48724211,0.0993157895 L95.9127579,0.0993157895 C99.4405053,0.0993157895 102.300295,2.94759868 102.300295,6.46190132 L102.300295,95.5380987 C102.300295,99.0520658 99.4405053,101.900684 95.9127579,101.900684 Z" id="Shape"></path>
                        </g>
                        <circle id="Oval" fill="#464655" cx="47" cy="47" r="5"></circle>
                        <g id="Group" transform="translate(19.000000, 10.000000)" fill="#6EC864">
                            <ellipse id="Oval" cx="5.062185" cy="4.92116447" rx="4.76437" ry="4.77185526"></ellipse>
                            <ellipse id="Oval" cx="128.937815" cy="4.92116447" rx="4.76437" ry="4.77185526"></ellipse>
                            <ellipse id="Oval" cx="5.062185" cy="148.078836" rx="4.76437" ry="4.77185526"></ellipse>
                            <ellipse id="Oval" cx="128.937815" cy="148.078836" rx="4.76437" ry="4.77185526"></ellipse>
                        </g>
                        <path d="M117,78.0454622 C117,71.6471995 112.41794,66.2170995 106.115947,64.3874904 C106.277076,63.6542372 106.368771,62.9031981 106.368771,62.1363865 C106.368771,55.9961887 100.982392,51 94.3594684,51 C90.8551495,51 87.6973422,52.3997248 85.5,54.6266665 C83.30299,52.3993892 80.1448505,51 76.6405316,51 C70.017608,51 64.6312292,55.9965243 64.6312292,62.1363865 C64.6312292,62.9028625 64.7229236,63.6542372 64.8840532,64.3874904 C58.5820598,66.2170995 54,71.6471995 54,78.0454622 C54,81.6016559 55.4734219,84.9977756 58.0142857,87.5908404 C55.4734219,90.1839053 54,93.5803606 54,97.1362187 C54,102.027034 56.7398671,106.560786 61.1255814,109.171973 C61.6272425,115.771251 67.5980066,121 74.8687708,121 C79.1431894,121 82.9700997,119.192875 85.5,116.362552 C88.0299003,119.193211 91.8568106,121 96.1312292,121 C103.691362,121 109.847841,115.347072 109.909635,108.377308 C114.323588,105.403018 117,100.641404 117,95.5452105 C117,92.2262753 115.885714,89.1063421 113.950498,86.5209956 C115.929236,84.0846489 117,81.151972 117,78.0454622 Z M74.8687708,114.636638 C70.7435216,114.636638 67.3873754,111.782488 67.3873754,108.272941 C67.3873754,105.629874 69.3498339,103.23279 72.269103,102.306912 C73.9272425,101.780379 74.8501661,99.9937246 74.3299003,98.3171422 C73.810299,96.6422377 72.044186,95.7056201 70.3800664,96.2355087 C66.961794,97.3197837 64.238206,99.5692096 62.644186,102.402889 C61.1687708,100.965579 60.2996678,99.0940213 60.2996678,97.1365543 C60.2996678,94.3988523 61.954485,91.8823008 64.7262458,90.4047202 C65.7598007,89.8546965 66.4059801,88.7704215 66.4059801,87.591176 C66.4059801,86.4119305 65.7598007,85.3276556 64.7262458,84.7776318 C61.954485,83.3000513 60.2996678,80.7831642 60.2996678,78.0457978 C60.2996678,73.6801732 64.4112957,70.1256574 69.4820598,70.0927701 C69.5378738,70.0941124 69.5933555,70.0951192 69.6495017,70.0934412 C71.0481728,70.1055223 72.3903654,70.3783529 73.638206,70.9099194 C75.2378738,71.5951839 77.089701,70.835084 77.766113,69.2148798 C78.4398671,67.5946757 77.6893688,65.7284878 76.0863787,65.0465792 C74.5624585,64.3978935 72.9584718,63.9871375 71.3019934,63.8176671 C71.0873754,63.3465058 70.9312292,62.7847366 70.9312292,62.1363865 C70.9312292,59.5047294 73.4936877,57.3636974 76.6405316,57.3636974 C79.7873754,57.3636974 82.3498339,59.5047294 82.3498339,62.1363865 L82.3498339,81.6835386 C80.1933555,80.3905298 77.6252492,79.6364704 74.8684385,79.6364704 C73.1272425,79.6364704 71.7186047,81.0610285 71.7186047,82.8181513 C71.7186047,84.5752741 73.1275748,86.0001678 74.8687708,86.0001678 C78.9940199,86.0001678 82.3501661,88.8543178 82.3501661,92.3638652 L82.3501661,108.272941 C82.3501661,111.782488 78.9940199,114.636638 74.8687708,114.636638 Z M107.993355,101.790782 C107.506977,101.032024 106.936213,100.314879 106.279734,99.6551193 C105.046179,98.4171465 103.052824,98.4262073 101.825249,99.6688783 C100.598007,100.916583 100.603987,102.931435 101.837542,104.169744 C102.981728,105.318115 103.612625,106.775225 103.612625,108.273276 C103.612625,111.782824 100.256811,114.636974 96.1312292,114.636974 C92.0059801,114.636974 88.6498339,111.782824 88.6498339,108.273276 L88.6498339,105.091596 C88.6498339,102.448528 90.6122924,100.051445 93.5315615,99.1255663 C95.189701,98.5990335 96.1126246,96.8123792 95.5923588,95.1357968 C95.0727575,93.4608924 93.3066445,92.5256171 91.6425249,93.0541634 C90.5717608,93.3937754 89.5710963,93.8494997 88.6491694,94.3995235 L88.6491694,62.1363865 C88.6491694,59.5047294 91.2116279,57.3636974 94.3584718,57.3636974 C97.5053156,57.3636974 100.067774,59.5047294 100.067774,62.1363865 C100.067774,63.3632851 99.5142857,64.2881572 99.0451827,64.8516043 C98.8388704,65.0969169 98.6674419,65.3734389 98.5418605,65.674123 C98.0172757,66.924177 98.3289037,68.4245773 99.4093023,69.3450868 C100.015615,69.86323 100.760133,70.1055223 101.496678,70.0920989 C106.576744,70.1155898 110.699336,73.6744682 110.699336,78.0454622 C110.699336,79.5579435 110.187043,81.0116975 109.242193,82.2701411 C107.650831,81.3036564 105.864452,80.5673831 103.932226,80.1197127 C102.249834,79.7358036 100.548505,80.7969232 100.157807,82.5094132 C99.7671096,84.2215676 100.828239,85.9290238 102.523588,86.3219938 C107.337542,87.4388205 110.699668,91.231266 110.699668,95.5458817 C110.7,97.8557129 109.706977,100.072923 107.993355,101.790782 Z" id="Shape" fill="#959CB3"></path>
                    </g>
                </g>
                <g id="mine" filter="url(#filter-2)" transform="translate(203.000000, 0.000000)" fill-rule="nonzero">
                    <path d="M25,124 L70.2874607,70.6176855 C74.2477442,65.9514985 79.774415,63.2526816 85.8521734,63.0159588 C86.1382475,63.0053196 86.4155463,63 86.6902125,63 C92.4511833,63 97.8707957,65.2688149 101.948668,69.3897416 L156,124 L25,124 Z" id="Shape" fill="#FFD94C"></path>
                    <path d="M25,124 L70.2874607,70.6176855 C74.2477442,65.9514985 79.774415,63.2526816 85.8521734,63.0159588 C86.1382475,63.0053196 86.4155463,63 86.6902125,63 C92.4511833,63 97.8707957,65.2688149 101.948668,69.3897416 L156,124 L25,124 Z" id="Shape" fill="#F3E7A0"></path>
                    <path d="M79.9218397,93.9149298 L101.262441,68.7602541 C97.2705666,65.0524839 92.1405384,63 86.6902125,63 C86.4155463,63 86.1382475,63.0053196 85.8521734,63.0159588 C79.774415,63.251795 74.2468667,65.9514985 70.2874607,70.6176855 L25,124 L156,124 L145.248528,113.137351 L88.6725481,113.137351 C78.8258074,113.136464 73.5141309,101.46878 79.9218397,93.9149298 Z" id="Shape" fill="#F7DB54"></path>
                    <g id="Group" transform="translate(95.000000, 0.000000)" fill="#F3E7A0">
                        <path d="M6.99784615,70.4469504 C6.76984615,70.2182979 6.53483077,69.9975603 6.29718462,69.7812199 L0.141184615,64.1809929 L57.0605077,7.09878014 C61.3837385,2.7631773 67.146,0.376397163 73.2862154,0.376397163 C77.8269231,0.376397163 82.2194308,1.70697872 85.9858154,4.22567376 L130.561569,34.0278865 L108.955062,55.6971064 L103.746138,52.8248794 C99.4553538,50.4592057 94.7515385,49.1849078 89.7653538,49.0380426 C89.4628154,49.0292482 89.1523846,49.0248511 88.8437077,49.0248511 C80.5778308,49.0248511 72.8039077,52.2558865 66.9539538,58.1225816 L30.8308615,94.3481702 L6.99784615,70.4469504 Z" id="Shape"></path>
                        <path d="M60.3121385,123.913816 L30.1310769,93.646383 L66.2541692,57.4199149 C72.2917846,51.3641418 80.2945846,48.0302128 88.7910923,48.0302128 C89.1287077,48.0302128 89.4672,48.0354894 89.8065692,48.0460426 C98.6845385,48.307234 106.835538,52.1230922 112.746,58.7900709 L170.468585,123.913816 L60.3121385,123.913816 L60.3121385,123.913816 Z" id="Shape"></path>
                    </g>
                    <g id="Group" transform="translate(95.000000, 0.000000)" fill="#F7DB54">
                        <path d="M103.858385,49.8779007 C97.9488,43.2100426 89.7978,39.3941844 80.9189538,39.1338723 C80.5795846,39.1233191 80.2410923,39.1180426 79.9034769,39.1180426 C71.4069692,39.1180426 63.4041692,42.4537305 57.3665538,48.5077447 L37.5410769,68.3899574 C35.5636154,70.373078 32.3803846,70.438156 30.324,68.5385816 L30.324,68.5385816 C28.1439692,66.5264397 28.0738154,63.0975319 30.1687846,60.9956879 L83.2463077,7.7662695 C84.3617538,6.64763121 85.5754154,5.66530496 86.8644923,4.81313475 L85.9849385,4.22479433 C82.2176769,1.70609929 77.8260462,0.37551773 73.2853385,0.37551773 C67.1451231,0.37551773 61.3828615,2.76229787 57.0596308,7.09790071 L0.140307692,64.1818723 L6.29630769,69.7820993 C6.53483077,69.9984397 6.76896923,70.2191773 6.99696923,70.4478298 L21.2434615,84.7350922 L30.8299846,94.3490496 L66.9530769,58.123461 C72.8030308,52.256766 80.5778308,49.0257305 88.8428308,49.0257305 C89.1515077,49.0257305 89.4610615,49.0301277 89.7644769,49.038922 C94.7506615,49.1857872 99.4553538,50.4600851 103.745262,52.8257589 L108.954185,55.6979858 L108.985754,55.6663262 L103.858385,49.8779007 Z" id="Shape"></path>
                        <path d="M162.990185,115.477418 L83.0095385,115.477418 C81.1004769,115.477418 79.2712154,114.717589 77.9216308,113.363262 L77.9216308,113.363262 C67.0635692,102.474128 67.0635692,84.8177589 77.9216308,73.9286241 L94.3832308,57.4199149 C96.9184154,54.8774752 99.8034923,52.8213617 102.923585,51.283234 C98.8932462,49.3001135 94.4507538,48.1823546 89.8048154,48.0460426 C89.4654462,48.0354894 89.1269538,48.0302128 88.7893385,48.0302128 C80.2928308,48.0302128 72.2900308,51.3659007 66.2524154,57.4199149 L43.1682923,80.5700993 L34.6849385,89.0777305 L30.1293231,93.646383 L60.3103846,123.913816 L86.3883231,123.913816 L88.4394462,123.913816 L170.465954,123.913816 L162.990185,115.477418 Z" id="Shape"></path>
                    </g>
                    <path d="M203,55.5014656 L236.880882,21.2775979 C238.970397,19.1641985 241.755829,18 244.718772,18 C247.681715,18 250.46803,19.1659827 252.559312,21.2811664 L278,46.981852 L231.59439,88 L203,55.5014656 Z" id="Shape" fill="#F3E7A0"></path>
                    <path d="M258,26.7682654 L252.823186,21.5395342 C250.784612,19.480515 248.088005,18.1325176 245.20768,18.0102967 C242.065024,17.8764783 239.089306,19.0514039 236.885561,21.2781422 L203,55.5026459 L231.599223,88 L243.754709,77.2561662 L240.311744,73.3442081 C232.645891,64.634414 233.031878,51.3997735 241.189709,43.159236 L255.609003,28.5962249 C256.329747,27.8682527 257.137051,27.2616093 258,26.7682654 Z" id="Shape" fill="#F7DB54"></path>
                    <path d="M264.251924,124 L231,86.3635346 L301.701875,24.1230216 C304.722386,21.4643166 308.607403,20 312.644104,20 C317.334882,20 321.824002,21.9900592 324.958494,25.4585489 L414,123.999118 L264.251924,124 L264.251924,124 Z" id="Shape" fill="#F3E7A0"></path>
                    <path d="M289.951537,103.705983 L289.951537,103.705983 C277.276729,89.3600909 278.648021,67.3715245 293.00538,54.7325315 L325.534992,26.0954384 L324.958944,25.4585489 C321.82356,21.9891771 317.334419,20 312.644495,20 C308.608652,20 304.722739,21.4643166 301.702214,24.1230216 L231,86.3635346 L264.252083,124 L414,124 L406.146634,115.308487 L315.628195,115.308487 C305.814337,115.305841 296.470436,111.084904 289.951537,103.705983 Z" id="Shape" fill="#F7DB54"></path>
                    <path d="M62.3844631,313 L60.01231,309.751481 C59.4387839,308.966018 58.9810154,308.077414 58.6539126,307.111233 L0.575186227,135.880355 C-0.528895377,132.624784 -0.020263661,128.948712 1.90113649,126.285544 L4.27241263,123 L444.728186,123 L447.099462,126.285544 C449.019985,128.947831 449.528617,132.623021 448.425412,135.87771 L390.347563,307.110352 C390.016075,308.081822 389.560061,308.967782 388.989165,309.7506 L386.617012,312.999118 L62.3844631,312.999118 L62.3844631,313 Z" id="Shape" fill="#ACACAD"></path>
                    <path d="M65.4360526,173.152369 L47.8857889,123 L4.27280036,123 L1.90130902,126.285544 C-0.0202654999,128.947831 -0.528943375,132.623902 0.575238426,135.880355 L58.6583585,307.111233 C58.986368,308.077414 59.4433011,308.965137 60.0168792,309.751481 L62.3892476,313 L386.64859,313 L389.020958,309.751481 C389.591906,308.968663 390.047962,308.083585 390.379479,307.111233 L398,284.644883 L222.032536,284.644883 C151.585913,284.644002 88.8115551,239.951083 65.4360526,173.152369 Z" id="Shape" fill="#999999"></path>
                    <g id="Group" transform="translate(25.000000, 142.000000)" fill="#7F7F7F">
                        <path d="M139.647154,132.799339 L62.1072863,132.799339 L36.835163,58.1565439 C35.5122952,54.2517197 31.2982291,52.1646736 27.4190441,53.4960042 C23.5416123,54.8273347 21.469207,59.0738201 22.7911982,62.9786444 L49.7762996,142.682791 C50.8011057,145.709184 53.6230485,147.743259 56.7991586,147.743259 L139.647154,147.743259 C143.744626,147.743259 147.06626,144.398159 147.06626,140.271741 C147.06626,136.145322 143.744626,132.799339 139.647154,132.799339 Z" id="Shape"></path>
                        <path d="M370.583586,53.4960042 C366.702648,52.1646736 362.488581,54.249954 361.165714,58.1565439 L335.892714,132.799339 L258.353722,132.799339 C254.255374,132.799339 250.934617,136.144439 250.934617,140.270858 C250.934617,144.397276 254.255374,147.742377 258.353722,147.742377 L341.201718,147.742377 C344.376075,147.742377 347.199771,145.708301 348.224577,142.681908 L375.209678,62.9777615 C376.532546,59.0729372 374.461018,54.8282176 370.583586,53.4960042 Z" id="Shape"></path>
                        <path d="M112.44289,100.421874 C112.44289,104.548293 115.764524,107.893393 119.861996,107.893393 L278.139758,107.893393 C282.238106,107.893393 285.558863,104.548293 285.558863,100.421874 C285.558863,96.2954561 282.238106,92.9503556 278.139758,92.9503556 L119.861996,92.9503556 C115.763648,92.9503556 112.44289,96.2954561 112.44289,100.421874 Z" id="Shape"></path>
                        <path d="M90.1855727,58.0823849 L149.539295,58.0823849 C153.636767,58.0823849 156.958401,54.7372845 156.958401,50.6108661 C156.958401,46.4844477 153.636767,43.1393473 149.539295,43.1393473 L90.1855727,43.1393473 C86.0881013,43.1393473 82.766467,46.4844477 82.766467,50.6108661 C82.766467,54.7372845 86.0872247,58.0823849 90.1855727,58.0823849 Z" id="Shape"></path>
                        <path d="M248.462458,58.0823849 L307.816181,58.0823849 C311.914529,58.0823849 315.235286,54.7372845 315.235286,50.6108661 C315.235286,46.4844477 311.914529,43.1393473 307.816181,43.1393473 L248.462458,43.1393473 C244.36411,43.1393473 241.043352,46.4844477 241.043352,50.6108661 C241.043352,54.7372845 244.36411,58.0823849 248.462458,58.0823849 Z" id="Shape"></path>
                        <ellipse id="Oval" cx="50.6161322" cy="10.7627657" rx="9.89214097" ry="9.9620251"></ellipse>
                        <ellipse id="Oval" cx="100.08122" cy="10.7627657" rx="9.89214097" ry="9.9620251"></ellipse>
                        <ellipse id="Oval" cx="159.435819" cy="10.7627657" rx="9.89214097" ry="9.9620251"></ellipse>
                        <ellipse id="Oval" cx="218.789542" cy="10.7627657" rx="9.89214097" ry="9.9620251"></ellipse>
                        <ellipse id="Oval" cx="278.143264" cy="10.7627657" rx="9.89214097" ry="9.9620251"></ellipse>
                        <ellipse id="Oval" cx="337.497863" cy="10.7627657" rx="9.89214097" ry="9.9620251"></ellipse>
                        <path d="M16.9570793,210.504724 C7.97051982,210.504724 0.659242291,203.141795 0.659242291,194.091749 L0.659242291,186.071983 C0.659242291,177.021937 7.97051982,169.659008 16.9570793,169.659008 L381.044674,169.659008 C390.031233,169.659008 397.342511,177.021937 397.342511,186.071983 L397.342511,194.091749 C397.342511,203.141795 390.031233,210.504724 381.044674,210.504724 L16.9570793,210.504724 Z" id="Shape"></path>
                    </g>
                    <path d="M66.7972321,335.525029 L66.7972321,327.474971 C66.7972321,318.390741 74.0658612,311 83,311 L41.2027679,311 C32.2686291,311 25,318.390741 25,327.474971 L25,335.525029 C25,344.609259 32.2686291,352 41.2027679,352 L83,352 C74.0649897,352 66.7972321,344.610146 66.7972321,335.525029 Z" id="Shape" fill="#727270"></path>
                    <g id="Group" transform="translate(85.000000, 330.000000)" fill="#507691">
                        <path d="M248.403877,61.6244571 C231.754245,61.6244571 218.20783,47.9499143 218.20783,31.1408286 C218.20783,14.3317429 231.754245,0.6572 248.403877,0.6572 C265.053509,0.6572 278.599925,14.3317429 278.599925,31.1408286 C278.599925,47.9499143 265.053509,61.6244571 248.403877,61.6244571 Z" id="Shape"></path>
                        <path d="M30.5978774,61.6244571 C13.9473679,61.6244571 0.401830189,47.9499143 0.401830189,31.1408286 C0.401830189,14.3317429 13.9473679,0.6572 30.5978774,0.6572 C47.2483868,0.6572 60.7939245,14.3317429 60.7939245,31.1408286 C60.7939245,47.9499143 47.2466321,61.6244571 30.5978774,61.6244571 Z" id="Shape"></path>
                    </g>
                </g>
                <g id="Front-Page" filter="url(#filter-3)" transform="translate(403.000000, 105.000000)">
                    <rect id="Rectangle-path" fill="#F6F8FB" fill-rule="nonzero" x="0" y="0" width="452" height="236"></rect>
                    <rect id="Rectangle-2" fill="#D8D8D8" x="0" y="0" width="452" height="12"></rect>
                    <circle id="Oval-2" fill="#FC8686" cx="8" cy="6" r="3"></circle>
                    <circle id="Oval-2" fill="#E9D059" cx="18" cy="6" r="3"></circle>
                    <circle id="Oval-2" fill="#7CC875" cx="28" cy="6" r="3"></circle>
                    <g id="Profile-3" transform="translate(25.000000, 31.000000)">
                        <rect id="Rectangle-3" fill="#D4D7E5" x="0" y="1" width="126" height="185" rx="2"></rect>
                        <rect id="Rectangle-4" fill="#94B5CD" x="0" y="0" width="126" height="40" rx="2"></rect>
                        <rect id="Rectangle-5" fill="#5874BE" x="9" y="49" width="79" height="12"></rect>
                        <rect id="Rectangle-5" fill="#94B5CD" x="9" y="128" width="29" height="48"></rect>
                        <rect id="Rectangle-5" fill="#94B5CD" x="48" y="128" width="29" height="48"></rect>
                        <rect id="Rectangle-5" fill="#94B5CD" x="87" y="128" width="29" height="48"></rect>
                        <rect id="Rectangle-5" fill="#5874BE" x="10" y="92" width="3" height="3"></rect>
                        <rect id="Rectangle-5" fill="#5874BE" x="10" y="109" width="3" height="3"></rect>
                        <rect id="Rectangle-5" fill="#5874BE" x="9" y="68" width="107" height="1"></rect>
                        <rect id="Rectangle-5" fill="#5874BE" x="9" y="76" width="107" height="1"></rect>
                        <rect id="Rectangle-5" fill="#5874BE" x="9" y="84" width="107" height="1"></rect>
                        <rect id="Rectangle-5" fill="#9FAFDA" x="17" y="93" width="72" height="1"></rect>
                        <rect id="Rectangle-5" fill="#9FAFDA" x="17" y="98" width="80" height="1"></rect>
                        <rect id="Rectangle-5" fill="#9FAFDA" x="17" y="110" width="80" height="1"></rect>
                        <rect id="Rectangle-5" fill="#5874BE" x="10" y="118" width="3" height="3"></rect>
                        <rect id="Rectangle-5" fill="#9FAFDA" x="17" y="119" width="80" height="1"></rect>
                        <rect id="Rectangle-5" fill="#9FAFDA" x="17" y="103" width="61" height="1"></rect>
                        <g id="avatar" transform="translate(49.000000, 6.000000)" fill-rule="nonzero">
                            <circle id="Oval" fill="#D8D8DF" cx="14.5" cy="14.5" r="14.5"></circle>
                            <path d="M14.4999702,21.8209186 C12.8348638,21.8209186 11.3241481,21.1249274 10.2095088,20 C10.2086746,20.6741671 10.1835288,21.6471965 10,22.357176 C10.1203663,22.4288589 10.2137991,22.5465116 10.2320328,22.6928956 C10.4699051,24.5783578 12.3045372,26 14.4999702,26 C16.6949265,26 18.5295586,24.5781836 18.7679076,22.6928956 C18.7863797,22.5463375 18.8777865,22.4288589 19,22.3574082 C18.8164712,21.6473707 18.7912658,20.6742251 18.7904316,20 C17.6757923,21.1249274 16.1650766,21.8209186 14.4999702,21.8209186 Z" id="Shape" fill="#F4F0E6"></path>
                            <path d="M19,20.0885434 C17.8562473,21.196955 16.3336485,21.8819662 14.6565885,21.8819662 C12.9335293,21.8819662 11.3702341,21.1626414 10.2168006,20 C10.2159374,20.696769 10.1899163,21.7024199 10,22.436202 C10.1245555,22.5102881 10.2212402,22.6318852 10.2401085,22.7831768 C10.3489405,23.6445548 10.7813701,24.4115106 11.4254208,25 C14.3955152,24.5931565 17.766592,21.7399129 19,20.0885434 Z" id="Shape" fill="#D7DBE0"></path>
                            <path d="M19,10 L10.5,10 C9.1215625,10 8,11.0767 8,12.4 L8,15.28 C8,18.98548 10.916,22 14.5,22 C18.084,22 21,18.98548 21,15.28 L21,11.92 C21,10.86136 20.103,10 19,10 Z" id="Shape" fill="#F4F0E6"></path>
                            <path d="M18.5,4 L12,4 C11.0595625,4 10.2690625,4.60154449 10.056125,5.40900184 C8.3349375,5.61076533 7,6.96957123 7,8.61041955 L7,10.9156293 C7,12.1037921 7.547,13.2122522 8.5,14 L8.5,11.3766713 C8.5,10.1056362 9.6215625,9.0714615 11,9.0714615 L19.5,9.0714615 C20.603,9.0714615 21.5,9.89874366 21.5,10.9156293 L21.5,13.9994813 C22.4531875,13.2118488 23,12.1035039 23,10.9156293 L23,8.14937759 C23,5.86151452 20.9814375,4 18.5,4 Z" id="Shape" fill="#5C546A"></path>
                            <path d="M4,24.0340633 C6.70917429,27.0824619 10.6331909,29 15,29 C19.3668091,29 23.2908257,27.0824619 26,24.0340633 C25.5276058,23.3868215 24.8614438,22.8609532 24.0048439,22.6178938 C23.9851094,22.6122689 23.9653133,22.6078939 23.9450854,22.6049565 L20.0068846,22.0060891 C19.9827716,22.0024016 19.9312152,22.0004642 19.9066705,22.0004642 C19.6575843,22.0004642 19.4475354,22.1887118 19.417132,22.4393961 C19.170451,24.4693702 17.2716855,26.0004132 15,26.0004132 C12.7278211,26.0004132 10.8290557,24.4696827 10.582868,22.4393961 C10.5520329,22.1813369 10.3226812,21.9872768 10.0808105,22.0006517 C10.0518871,21.9989642 10.0234571,22.0014017 9.99311536,22.0060266 L6.05491456,22.604894 C6.03468672,22.6078314 6.01495223,22.6122064 5.99515608,22.6178313 C5.13855624,22.8610157 4.47239415,23.3868215 4,24.0340633 Z" id="Shape" fill="#5C546A"></path>
                        </g>
                    </g>
                    <g id="infographics" transform="translate(171.000000, 31.000000)" fill-rule="nonzero">
                        <g id="Group" fill="#E4EAF6">
                            <path d="M31.4999473,49.5795113 C31.4999473,61.9309962 41.5938164,71.9803759 53.9999824,71.9803759 C66.4061484,71.9803759 76.5000176,61.9309962 76.5000176,49.5795113 C76.5000176,37.2290414 66.4066582,27.1791541 54.001002,27.1786466 C53.5478203,27.1786466 53.0946387,27.1959023 52.6434961,27.2228008 C52.5231914,27.229906 52.4039063,27.2405639 52.2841113,27.2502068 C51.9395098,27.2765977 51.5949082,27.3095865 51.2523457,27.3517105 C51.1340801,27.3664286 51.0163242,27.3801316 50.8985684,27.3963722 C50.5035,27.4506767 50.1109805,27.5151316 49.7199902,27.5902444 C49.6695234,27.5998872 49.6180371,27.6075 49.5680801,27.6176504 C49.1271328,27.7054511 48.6887344,27.8079699 48.2544141,27.9216541 C48.1412461,27.9510902 48.030627,27.9856015 47.9184785,28.0170677 C47.617207,28.1013158 47.3169551,28.1916541 47.0197617,28.2875752 C46.8469512,28.3439098 46.6756699,28.4012594 46.5043887,28.4616541 C46.2806016,28.539812 46.0588535,28.6250752 45.8376152,28.7108459 C45.0056777,29.0346429 44.1961699,29.4031015 43.4157188,29.8192669 C43.3489395,29.8553008 43.2811406,29.889812 43.2143613,29.9263534 C36.2402578,33.735282 31.4999473,41.1161278 31.4999473,49.5795113 Z M49.4997715,45.0991353 L58.4996836,45.0991353 C60.984791,45.0991353 62.9998945,47.1053571 62.9998945,49.5795113 C62.9998945,52.0536654 60.984791,54.0598872 58.4996836,54.0598872 L49.4997715,54.0598872 C47.0146641,54.0598872 44.9995605,52.0536654 44.9995605,49.5795113 C44.9995605,47.1053571 47.0146641,45.0991353 49.4997715,45.0991353 Z" id="Shape"></path>
                            <path d="M107.999965,49.5795113 C107.999965,61.9309962 118.093834,71.9803759 130.5,71.9803759 C142.906166,71.9803759 153.000035,61.9309962 153.000035,49.5795113 C153.000035,37.2280263 142.906166,27.1786466 130.5,27.1786466 C118.093834,27.1786466 107.999965,37.2280263 107.999965,49.5795113 Z M125.999789,45.0991353 L134.999701,45.0991353 C137.484809,45.0991353 139.499912,47.1053571 139.499912,49.5795113 C139.499912,52.0536654 137.484809,54.0598872 134.999701,54.0598872 L125.999789,54.0598872 C123.514682,54.0598872 121.499578,52.0536654 121.499578,49.5795113 C121.499578,47.1053571 123.514682,45.0991353 125.999789,45.0991353 Z" id="Shape"></path>
                            <path d="M207.000018,27.1786466 C194.593852,27.1786466 184.499982,37.2280263 184.499982,49.5795113 C184.499982,61.9309962 194.593852,71.9803759 207.000018,71.9803759 C219.406184,71.9803759 229.500053,61.9309962 229.500053,49.5795113 C229.500053,49.5135338 229.495465,49.4480639 229.494955,49.3815789 C229.491387,48.9740414 229.475584,48.5680263 229.450605,48.1630263 C229.4399,47.9899624 229.425627,47.817406 229.411354,47.6453571 C229.381277,47.3007519 229.343045,46.9576692 229.297676,46.616109 C229.279324,46.4755263 229.265051,46.3334211 229.243641,46.1933459 C229.177881,45.7624624 229.096318,45.3361466 229.00558,44.9113534 C228.963779,44.7169737 228.917391,44.5246241 228.870492,44.3317669 C228.805752,44.0643045 228.734895,43.7988722 228.660469,43.5339474 C228.603885,43.3329699 228.550359,43.1309774 228.488168,42.9320301 C228.372451,42.5600188 228.24399,42.1920677 228.108902,41.8271617 C228.018164,41.5835526 227.920799,41.3440038 227.821904,41.1049624 C227.751557,40.9339286 227.67866,40.7649248 227.604234,40.5959211 C227.223949,39.7351692 226.793197,38.9018233 226.311469,38.1014662 C226.252336,38.003515 226.191674,37.9060714 226.131521,37.8086278 C222.160447,31.4346992 215.071137,27.1786466 207.000018,27.1786466 Z M211.500229,54.0593797 L202.500316,54.0593797 C200.015209,54.0593797 198.000105,52.0531579 198.000105,49.5790038 C198.000105,47.1048496 200.015209,45.0986278 202.500316,45.0986278 L211.500229,45.0986278 C213.985336,45.0986278 216.000439,47.1048496 216.000439,49.5790038 C216.000439,52.0531579 213.985336,54.0593797 211.500229,54.0593797 Z" id="Shape"></path>
                            <path d="M252.000088,0.297406015 L8.99991211,0.297406015 C4.0291875,0.297406015 0,4.30934211 0,9.25765038 L0,125.741842 C0,130.69015 4.0291875,134.702086 8.99991211,134.702086 L252.000088,134.702086 C256.970813,134.702086 261,130.69015 261,125.741842 L261,9.25765038 C261,4.30934211 256.970813,0.297406015 252.000088,0.297406015 Z M62.9998945,116.781598 L45.0000703,116.781598 C42.5149629,116.781598 40.4998594,114.775376 40.4998594,112.301222 C40.4998594,109.827068 42.5149629,107.820846 45.0000703,107.820846 L62.9998945,107.820846 C65.485002,107.820846 67.5001055,109.827068 67.5001055,112.301222 C67.5001055,114.775883 65.485002,116.781598 62.9998945,116.781598 Z M71.9998066,98.861109 L36.0001582,98.861109 C33.5150508,98.861109 31.4999473,96.8548872 31.4999473,94.3807331 C31.4999473,91.9065789 33.5150508,89.9003571 36.0001582,89.9003571 L72.0003164,89.9003571 C74.4854238,89.9003571 76.5005273,91.9065789 76.5005273,94.3807331 C76.5005273,96.8548872 74.4849141,98.861109 71.9998066,98.861109 Z M54.0020215,80.9406203 C54.0015117,80.9406203 54.0015117,80.9406203 54.0020215,80.9406203 C54.001002,80.9406203 54.0004922,80.9406203 53.9999824,80.9406203 C36.6307383,80.9406203 22.5000352,66.8701692 22.5000352,49.5795113 C22.5000352,38.1253195 28.7043926,28.0891353 37.9403262,22.6155451 C38.0397305,22.5470301 38.1396445,22.4800376 38.2456758,22.4186278 C39.8081074,21.518797 41.4449648,20.7605639 43.1327988,20.1434211 C43.1812266,20.1261654 43.2301641,20.1094173 43.2785918,20.0916541 C43.6711113,19.9505639 44.0671992,19.8165789 44.4653262,19.6907143 C44.5545352,19.6622932 44.6432344,19.6328571 44.7324434,19.6054511 C45.1453535,19.4795865 45.5603027,19.3618421 45.9778008,19.2527256 C46.1261426,19.2136466 46.2760137,19.1776128 46.425375,19.1410714 C46.7281758,19.0664662 47.0319961,18.9964286 47.3368359,18.9309586 C47.4897656,18.8979699 47.6416758,18.8629511 47.795625,18.8325 C48.1978301,18.752312 48.6020742,18.6812594 49.0078477,18.616297 C49.172502,18.589906 49.3386855,18.5665602 49.5038496,18.5427068 C49.8402949,18.4944925 50.17725,18.4518609 50.5152246,18.4143045 C50.6334902,18.4016165 50.7502266,18.3853759 50.869002,18.3731955 C51.3135176,18.3290414 51.7590527,18.2970677 52.2050977,18.2716917 C52.3305,18.265094 52.4559023,18.2590038 52.5813047,18.2534211 C53.0523281,18.2321053 53.5238613,18.2178947 53.9964141,18.2173872 C53.9974336,18.2173872 53.9994727,18.2173872 54.0004922,18.2173872 C54.0004922,18.2173872 54.001002,18.2173872 54.0015117,18.2173872 L54.0025312,18.2173872 C71.3717754,18.2173872 85.5024785,32.2878383 85.5024785,49.5784962 C85.5024785,66.8691541 71.3717754,80.9406203 54.0020215,80.9406203 Z M139.499912,116.781598 L121.500088,116.781598 C119.01498,116.781598 116.999877,114.775376 116.999877,112.301222 C116.999877,109.827068 119.01498,107.820846 121.500088,107.820846 L139.499912,107.820846 C141.98502,107.820846 144.000123,109.827068 144.000123,112.301222 C144.000123,114.775883 141.98502,116.781598 139.499912,116.781598 Z M148.499824,98.861109 L112.500176,98.861109 C110.015068,98.861109 107.999965,96.8548872 107.999965,94.3807331 C107.999965,91.9065789 110.015068,89.9003571 112.500176,89.9003571 L148.500334,89.9003571 C150.985441,89.9003571 153.000545,91.9065789 153.000545,94.3807331 C153.000545,96.8548872 150.984932,98.861109 148.499824,98.861109 Z M130.5,80.9406203 C113.130756,80.9406203 99.0000527,66.8701692 99.0000527,49.5795113 C99.0000527,32.2888534 113.130756,18.2184023 130.5,18.2184023 C147.869244,18.2184023 161.999947,32.2888534 161.999947,49.5795113 C161.999947,66.8701692 147.869244,80.9406203 130.5,80.9406203 Z M215.99993,116.781598 L198.000105,116.781598 C195.514998,116.781598 193.499895,114.775376 193.499895,112.301222 C193.499895,109.827068 195.514998,107.820846 198.000105,107.820846 L215.99993,107.820846 C218.485037,107.820846 220.500141,109.827068 220.500141,112.301222 C220.500141,114.775883 218.485037,116.781598 215.99993,116.781598 Z M224.999842,98.861109 L188.999684,98.861109 C186.514576,98.861109 184.499473,96.8548872 184.499473,94.3807331 C184.499473,91.9065789 186.514576,89.9003571 188.999684,89.9003571 L224.999842,89.9003571 C227.484949,89.9003571 229.500053,91.9065789 229.500053,94.3807331 C229.500053,96.8548872 227.484949,98.861109 224.999842,98.861109 Z M207.002057,80.9406203 C207.001547,80.9406203 207.001547,80.9406203 207.002057,80.9406203 C207.001037,80.9406203 207.000527,80.9406203 207.000018,80.9406203 C189.630773,80.9406203 175.50007,66.8701692 175.50007,49.5795113 C175.50007,32.2888534 189.630773,18.2184023 207.000018,18.2184023 C217.809088,18.2184023 227.360566,23.6686466 233.036297,31.9513534 C233.109193,32.0437218 233.18158,32.1365977 233.248359,32.2365789 C235.489289,35.5917857 237.036938,39.311391 237.845426,43.2111654 C237.854092,43.2507519 237.861738,43.2908459 237.869385,43.3299248 C238.071252,44.3236466 238.22724,45.3280263 238.331742,46.3420489 C238.33582,46.3816353 238.338369,46.4217293 238.342447,46.4608083 C238.387816,46.9175752 238.42248,47.3763722 238.447459,47.8361842 C238.451537,47.912312 238.456635,47.9879323 238.459693,48.0640602 C238.483652,48.5675188 238.500984,49.0725 238.500984,49.5795113 C238.502004,66.8701692 224.371811,80.9406203 207.002057,80.9406203 Z" id="Shape"></path>
                        </g>
                        <g id="Group" transform="translate(23.000000, 17.000000)" fill="#BEC8DC">
                            <path d="M104.058831,59.21536 C104.058831,56.717312 106.083444,54.695424 108.580278,54.695424 C96.1155695,54.695424 85.974069,44.557312 85.974069,32.096768 C85.974069,19.636224 96.1155695,9.498112 108.580278,9.498112 C106.083444,9.498112 104.058831,7.476736 104.058831,4.978176 C104.058831,2.479616 106.083444,0.45824 108.580278,0.45824 C91.1290714,0.45824 76.9316879,14.652928 76.9316879,32.096256 C76.9316879,49.539584 91.1290714,63.734272 108.580278,63.734272 C106.083444,63.735296 104.058831,61.71392 104.058831,59.21536 Z" id="Shape"></path>
                            <path d="M25.0236567,1.20811733 C25.2227476,1.164784 25.4211749,1.11811733 25.6209295,1.078784 C25.4211749,1.11945067 25.2234113,1.164784 25.0236567,1.20811733 Z" id="Shape"></path>
                            <path d="M23.6587207,1.53674667 C23.8525025,1.48541333 24.0476116,1.43808 24.2413934,1.39008 C24.046948,1.43874667 23.8525025,1.48474667 23.6587207,1.53674667 Z" id="Shape"></path>
                            <path d="M26.7030658,0.883098667 C26.9174204,0.848432 27.1337658,0.817765333 27.348784,0.786432 C27.1331022,0.817765333 26.9174204,0.848432 26.7030658,0.883098667 Z" id="Shape"></path>
                            <path d="M29.9154031,0.519616 C30.0786577,0.510282667 30.2419122,0.502949333 30.4051668,0.495616 C30.2419122,0.502282667 30.077994,0.509616 29.9154031,0.519616 Z" id="Shape"></path>
                            <path d="M27.200384,59.21536 C27.200384,56.717312 29.2249964,54.695424 31.7218307,54.695424 C44.1865393,54.695424 54.3280397,44.557312 54.3280397,32.096768 C54.3280397,19.636224 44.1865393,9.498112 31.7218307,9.498112 C31.7213185,9.498112 31.7213185,9.498112 31.7208063,9.498112 C44.1844906,9.498624 54.325991,19.636736 54.325991,32.096768 C54.325991,44.557312 44.1844906,54.695424 31.719782,54.695424 C19.2550734,54.695424 9.11357296,44.557312 9.11357296,32.096768 C9.11357296,23.559168 13.8762522,16.11264 20.8842897,12.27008 C20.7306384,12.354048 20.5728897,12.429824 20.421287,12.517376 C18.2599249,13.771264 15.4936886,13.033984 14.2419424,10.871296 C13.0542176,8.815616 13.6642134,6.219776 15.5843429,4.895232 C6.30482652,10.417152 0.0711917861,20.541952 0.0711917861,32.09728 C0.0711917861,49.540608 14.2685753,63.735296 31.719782,63.735296 C31.7202942,63.735296 31.7208063,63.735296 31.7213185,63.735296 C29.2239721,63.734784 27.200384,61.713408 27.200384,59.21536 Z" id="Shape"></path>
                            <path d="M20.8002936,2.417056 C20.8633391,2.39438933 20.9270482,2.37238933 20.9900936,2.349056 C20.9270482,2.37172267 20.8633391,2.39372267 20.8002936,2.417056 Z" id="Shape"></path>
                            <path d="M22.139109,1.971072 C22.2545817,1.93440533 22.3707181,1.89440533 22.4868544,1.859072 C22.3700544,1.89440533 22.2552453,1.933072 22.139109,1.971072 Z" id="Shape"></path>
                            <path d="M28.2170437,0.669936 C28.3710073,0.653269333 28.5236437,0.631936 28.6776073,0.615936 C28.5236437,0.631269333 28.3710073,0.652602667 28.2170437,0.669936 Z" id="Shape"></path>
                            <path d="M27.2674784,9.949344 C27.3325148,9.93601067 27.4002057,9.92667733 27.4652421,9.913344 C27.3995421,9.92667733 27.3325148,9.93601067 27.2674784,9.949344 Z" id="Shape"></path>
                            <path d="M28.604245,9.73188267 C28.757545,9.71054933 28.910845,9.69188267 29.0648087,9.673216 C28.910845,9.691216 28.7568814,9.71054933 28.604245,9.73188267 Z" id="Shape"></path>
                            <path d="M25.6100927,10.3735253 C25.7560927,10.332192 25.9007654,10.2875253 26.047429,10.248192 C25.9007654,10.286192 25.7560927,10.332192 25.6100927,10.3735253 Z" id="Shape"></path>
                            <polygon id="Shape" points="31.7204815 0.459264 31.7151724 0.459264 31.7218088 0.459264"></polygon>
                            <path d="M24.18933,10.8460107 C24.4085728,10.767344 24.6304414,10.691344 24.8529663,10.617344 C24.6304414,10.6906773 24.4092293,10.767344 24.18933,10.8460107 Z" id="Shape"></path>
                            <path d="M29.9963262,9.579168 C30.1522807,9.567168 30.3075716,9.55250133 30.4641898,9.543168 C30.3075716,9.55250133 30.1522807,9.567168 29.9963262,9.579168 Z" id="Shape"></path>
                            <path d="M21.0860851,12.161536 C21.8707313,11.741696 22.6835469,11.369984 23.5194101,11.043328 C22.6871321,11.367424 21.8753408,11.740672 21.0860851,12.161536 Z" id="Shape"></path>
                            <path d="M216.432761,25.672192 C216.444043,25.724192 216.453997,25.7768587 216.463952,25.828192 C216.453997,25.7768587 216.443379,25.7248587 216.432761,25.672192 Z" id="Shape"></path>
                            <path d="M204.844377,20.517376 C205.328379,21.3248 205.761163,22.165504 206.143243,23.033856 C205.764749,22.171136 205.331452,21.331456 204.844377,20.517376 Z" id="Shape"></path>
                            <path d="M207.031348,25.391104 C207.112311,25.6114525 207.18133,25.8351737 207.255657,26.0577707 C207.18133,25.8357358 207.111648,25.6120146 207.031348,25.391104 Z" id="Shape"></path>
                            <path d="M217.038659,30.339072 C217.043969,30.439072 217.050605,30.5384053 217.054587,30.6384053 C217.049941,30.5384053 217.043969,30.4384053 217.038659,30.339072 Z" id="Shape"></path>
                            <path d="M207.957353,30.146048 C207.976599,30.3676166 207.994517,30.5898388 208.008453,30.8127147 C207.995181,30.5904924 207.977262,30.3682702 207.957353,30.146048 Z" id="Shape"></path>
                            <path d="M180.922401,59.21536 C180.922401,56.717312 182.947013,54.695424 185.443847,54.695424 C197.908556,54.695424 208.050056,44.557312 208.050056,32.096768 C208.050056,32.030208 208.043398,31.96416 208.042886,31.897088 C208.043398,31.963648 208.048008,32.029184 208.048008,32.096768 C208.048008,44.557312 197.906507,54.695424 185.441799,54.695424 C172.97709,54.695424 162.835589,44.557312 162.835589,32.096768 C162.835589,19.636224 172.97709,9.498112 185.441799,9.498112 C193.551004,9.498112 200.673768,13.791744 204.663581,20.221952 C204.536562,20.01664 204.419787,19.807232 204.286111,19.606016 C202.902224,17.526784 203.467149,14.72 205.546564,13.338112 C207.531739,12.023296 210.16225,12.478976 211.600939,14.313472 C205.898425,5.95712 196.301875,0.458752 185.441799,0.458752 C167.990592,0.458752 153.793208,14.65344 153.793208,32.096768 C153.793208,49.540096 167.990592,63.734784 185.441799,63.734784 C185.442311,63.734784 185.442823,63.734784 185.443335,63.734784 C182.945989,63.734784 180.922401,61.713408 180.922401,59.21536 Z" id="Shape"></path>
                            <path d="M207.789361,28.681216 C207.817234,28.865216 207.835816,29.0518827 207.859707,29.2365493 C207.835152,29.0518827 207.817234,28.8658827 207.789361,28.681216 Z" id="Shape"></path>
                            <path d="M206.36194,23.547392 C206.490022,23.788544 206.61744,24.031232 206.735567,24.275968 C206.618104,24.031232 206.490022,23.789056 206.36194,23.547392 Z" id="Shape"></path>
                            <path d="M216.921372,28.831744 C216.926681,28.883744 216.93,28.9364107 216.935309,28.987744 C216.931327,28.9350773 216.927345,28.8830773 216.921372,28.831744 Z" id="Shape"></path>
                            <path d="M207.414964,26.8032 C207.476019,27.025033 207.536409,27.2462823 207.590828,27.4698667 C207.536409,27.2468661 207.475355,27.0256168 207.414964,26.8032 Z" id="Shape"></path>
                        </g>
                        <path d="M238.945964,47.3544059 C238.920476,46.9009671 238.885811,46.4485292 238.840952,45.9980933 C238.836873,45.9590555 238.834325,45.9195173 238.830246,45.88098 C238.725743,44.8810122 238.569754,43.8900532 238.367884,42.9106053 C238.360238,42.8715675 238.351572,42.8320292 238.343925,42.7934919 C237.534919,38.9477701 235.987766,35.2792197 233.746814,31.9710181 C233.680544,31.8729231 233.607647,31.780834 233.534749,31.6897459 C232.102294,29.8965104 229.484112,29.4520803 227.508751,30.7363231 C225.438573,32.08663 224.876296,34.8307857 226.254206,36.8632527 C226.387766,37.0599431 226.503993,37.2651417 226.629907,37.4653354 C226.690569,37.5614284 226.751232,37.6575214 226.809856,37.7541149 C227.294647,38.549885 227.726423,39.3706794 228.102634,40.2139955 C228.17706,40.3806568 228.250467,40.5473181 228.320306,40.7159813 C228.418692,40.95221 228.517077,41.1889391 228.607307,41.4281706 C228.742906,41.7880189 228.870348,42.15087 228.986576,42.5177251 C229.048258,42.7144154 229.102294,42.9131077 229.158879,43.1112995 C229.233305,43.3725524 229.304163,43.6343057 229.368904,43.8980609 C229.415803,44.088245 229.462192,44.2779286 229.503993,44.4696141 C229.594732,44.888019 229.676296,45.3094268 229.742056,45.7338376 C229.763466,45.8724717 229.77723,46.0116064 229.796092,46.1507411 C229.841461,46.487567 229.879694,46.8263949 229.909771,47.1657233 C229.924554,47.335888 229.938318,47.5055522 229.949023,47.6762174 C229.974511,48.0756039 229.990314,48.4759914 229.993373,48.8778803 C229.993883,48.9429433 230.00051,49.0070053 230.00051,49.0730692 C230.00051,61.2533572 219.906542,71.1634481 207.500255,71.1634481 C205.015123,71.1634481 203,73.1393603 203,75.581724 C203,78.0230868 205.014104,79.998999 207.499235,80 L207.499745,80 C224.869159,80 239,66.1245715 239,49.0735697 C239,48.5735859 238.983178,48.0761044 238.958709,47.5791234 C238.95463,47.5040508 238.950042,47.4289781 238.945964,47.3544059 Z" id="Shape" fill="#6EAADC"></path>
                        <path d="M53.8202114,19 C53.8197068,19 53.8192022,19 53.8192022,19 C53.8171839,19 53.8151655,19 53.8136517,19 C53.3458943,19 52.8786416,19.0145483 52.4129026,19.0356183 C52.2887728,19.0411367 52.164643,19.046655 52.0405132,19.0536784 C51.59849,19.0787617 51.1574761,19.1108684 50.7179759,19.1540117 C50.6009104,19.1655501 50.4848541,19.1811017 50.3677886,19.1946467 C50.0332437,19.2317701 49.6997079,19.2739101 49.3666768,19.3215684 C49.2031888,19.3446451 49.0386916,19.3682235 48.8757081,19.3943101 C48.4740524,19.4580218 48.0739104,19.5282552 47.6757868,19.6080202 C47.5239044,19.6386219 47.3730312,19.6727352 47.2216534,19.7053436 C46.919907,19.7700586 46.6191698,19.8392886 46.3194418,19.9130336 C46.1710916,19.9496553 46.0232459,19.984772 45.8764095,20.0234003 C45.4631481,20.1312587 45.0519051,20.2476454 44.6436896,20.3720588 C44.5553859,20.3991488 44.4675868,20.4287471 44.3792831,20.4563388 C43.9851962,20.5802505 43.5936323,20.7126906 43.2045914,20.8526556 C43.1566551,20.8697123 43.1082142,20.8862673 43.0602779,20.9038256 C41.3900763,21.5133508 39.7703339,22.2628411 38.2227483,23.152798 C38.1172884,23.212998 38.0183882,23.2802214 37.9204973,23.3474447 C36.0297886,24.6457585 35.4283142,27.1887076 36.59796,29.2029 C37.8311844,31.3219406 40.5559846,32.0443409 42.6858702,30.8157588 C42.8352296,30.7299738 42.9906441,30.6557271 43.1420219,30.5734537 C43.2081236,30.5373337 43.2752344,30.5027187 43.341336,30.467602 C44.1194179,30.0552319 44.9186926,29.6885134 45.7386557,29.3719617 C45.9576489,29.28718 46.1766421,29.2029 46.3986628,29.1256433 C46.5677014,29.0664466 46.7377491,29.0087549 46.908806,28.9535715 C47.2034881,28.8582548 47.5001886,28.7694598 47.7984028,28.6861831 C47.9094132,28.6550798 48.0194144,28.6214681 48.1309294,28.5918698 C48.5613469,28.4794964 48.9942874,28.377658 49.4312646,28.2913713 C49.4812193,28.281338 49.5316786,28.2743147 49.5816332,28.2642813 C49.9681512,28.1900346 50.3571921,28.1268246 50.7482514,28.0726446 C50.8648123,28.0565913 50.9813732,28.0425446 51.0984387,28.0284979 C51.437525,27.9868596 51.778125,27.9542512 52.1197342,27.9281645 C52.2383135,27.9191345 52.3563882,27.9080979 52.475472,27.9010745 C52.9220365,27.8744862 53.3701148,27.8574295 53.8192022,27.8574295 C53.8197068,27.8574295 53.8197068,27.8574295 53.8202114,27.8574295 C66.1004826,27.8574295 76.0919215,37.7909344 76.0919215,50 C76.0919215,62.2090656 66.1004826,72.1425705 53.8202114,72.1425705 C51.3603223,72.1425705 49.3656676,74.1231511 49.3656676,76.5712852 C49.3656676,79.018416 51.3593131,80.9989967 53.8192022,81 L53.8197068,81 C71.0126919,81 85,67.0917888 85,50.0005017 C85,32.9092145 71.0137011,19 53.8202114,19 Z" id="Shape" fill="#FF6469"></path>
                        <path d="M130.500191,19 C128.015095,19 126,20.9805967 126,23.4287506 C126,25.8769045 128.015095,27.8575012 130.500191,27.8575012 C142.906303,27.8575012 153.000127,37.7910864 153.000127,50.0002508 C153.000127,62.2094152 142.906303,72.1424988 130.500191,72.1424988 C128.015095,72.1424988 126,74.1230955 126,76.5712494 C126,79.0189017 128.015095,81 130.500191,81 C147.869359,81 162,67.0916763 162,50.0002508 C162,32.9088254 147.869359,19 130.500191,19 Z" id="Shape" fill="#FFCD73"></path>
                        <g id="Group" transform="translate(45.000000, 45.000000)" fill="#707384">
                            <path d="M4.63277679,8.77121053 L13.6179107,8.77121053 C16.0989375,8.77121053 18.1107321,6.89873684 18.1107321,4.58952632 C18.1107321,2.28031579 16.0989375,0.407842105 13.6179107,0.407842105 L4.63277679,0.407842105 C2.15175,0.407842105 0.139955357,2.28031579 0.139955357,4.58952632 C0.139955357,6.89873684 2.15175,8.77121053 4.63277679,8.77121053 Z" id="Shape"></path>
                            <path d="M166.367223,0.408315789 L157.382089,0.408315789 C154.901062,0.408315789 152.889268,2.28078947 152.889268,4.59 C152.889268,6.89921053 154.901062,8.77168421 157.382089,8.77168421 L166.367223,8.77168421 C168.84825,8.77168421 170.860045,6.89921053 170.860045,4.59 C170.860045,2.28078947 168.84825,0.408315789 166.367223,0.408315789 Z" id="Shape"></path>
                            <path d="M81.0071786,8.77121053 L89.9923125,8.77121053 C92.4733393,8.77121053 94.4851339,6.89873684 94.4851339,4.58952632 C94.4851339,2.28031579 92.4733393,0.407842105 89.9923125,0.407842105 L81.0071786,0.407842105 C78.5261518,0.407842105 76.5143571,2.28031579 76.5143571,4.58952632 C76.5143571,6.89873684 78.5261518,8.77121053 81.0071786,8.77121053 Z" id="Shape"></path>
                        </g>
                        <g id="Group" transform="translate(30.000000, 90.000000)" fill="#AFBBD0">
                            <path d="M40.9434846,0.0715555556 L4.90917692,0.0715555556 C2.42167692,0.0715555556 0.404633333,2.12125926 0.404633333,4.64903704 C0.404633333,7.17681481 2.42167692,9.22651852 4.90917692,9.22651852 L40.9439949,9.22651852 C43.4314949,9.22651852 45.4485385,7.17681481 45.4485385,4.64903704 C45.4485385,2.12125926 43.4309846,0.0715555556 40.9434846,0.0715555556 Z" id="Shape"></path>
                            <path d="M117.517154,0.0715555556 L81.4828462,0.0715555556 C78.9953462,0.0715555556 76.9783026,2.12125926 76.9783026,4.64903704 C76.9783026,7.17681481 78.9953462,9.22651852 81.4828462,9.22651852 L117.517664,9.22651852 C120.005164,9.22651852 122.022208,7.17681481 122.022208,4.64903704 C122.022208,2.12125926 120.004654,0.0715555556 117.517154,0.0715555556 Z" id="Shape"></path>
                            <path d="M194.090823,0.0715555556 L158.056005,0.0715555556 C155.568505,0.0715555556 153.551462,2.12125926 153.551462,4.64903704 C153.551462,7.17681481 155.568505,9.22651852 158.056005,9.22651852 L194.090823,9.22651852 C196.578323,9.22651852 198.595367,7.17681481 198.595367,4.64903704 C198.595367,2.12125926 196.578323,0.0715555556 194.090823,0.0715555556 Z" id="Shape"></path>
                            <path d="M108.508577,18.3804444 L90.4914231,18.3804444 C88.0039231,18.3804444 85.9868795,20.4301481 85.9868795,22.9579259 C85.9868795,25.4857037 88.0039231,27.5354074 90.4914231,27.5354074 L108.508577,27.5354074 C110.996077,27.5354074 113.013121,25.4857037 113.013121,22.9579259 C113.013121,20.4301481 110.996077,18.3804444 108.508577,18.3804444 Z" id="Shape"></path>
                            <path d="M31.9349077,18.3804444 L13.9177538,18.3804444 C11.4302538,18.3804444 9.41321026,20.4301481 9.41321026,22.9579259 C9.41321026,25.4857037 11.4302538,27.5354074 13.9177538,27.5354074 L31.9349077,27.5354074 C34.4224077,27.5354074 36.4394513,25.4857037 36.4394513,22.9579259 C36.4394513,20.4301481 34.4224077,18.3804444 31.9349077,18.3804444 Z" id="Shape"></path>
                            <path d="M185.082246,18.3804444 L167.065092,18.3804444 C164.577592,18.3804444 162.560549,20.4301481 162.560549,22.9579259 C162.560549,25.4857037 164.577592,27.5354074 167.065092,27.5354074 L185.082246,27.5354074 C187.569746,27.5354074 189.58679,25.4857037 189.58679,22.9579259 C189.58679,20.4301481 187.569746,18.3804444 185.082246,18.3804444 Z" id="Shape"></path>
                        </g>
                    </g>
                </g>
                <g id="Group-2" transform="translate(574.000000, 284.000000)" fill-rule="nonzero" fill="#AAB5BD">
                    <rect id="Rectangle-path" x="0" y="0" width="245" height="3" rx="1.5"></rect>
                    <rect id="Rectangle-path" x="0" y="11" width="201" height="3" rx="1.5"></rect>
                    <rect id="Rectangle-path" x="0" y="33" width="252" height="3" rx="1.5"></rect>
                    <rect id="Rectangle-path" x="0" y="22" width="210" height="3" rx="1.5"></rect>
                </g>
            </g>
        </g>
    </g>
</svg>