<?xml version="1.0" encoding="UTF-8"?>
<svg width="143px" height="143px" viewBox="0 0 143 143" version="1.1" xmlns="http://www.w3.org/2000/svg" xmlns:xlink="http://www.w3.org/1999/xlink">
    <!-- Generator: Sketch 47 (45396) - http://www.bohemiancoding.com/sketch -->
    <title>Group 3</title>
    <desc>Created with Sketch.</desc>
    <defs>
        <circle id="path-1" cx="68.5" cy="68.5" r="68.5"></circle>
        <filter x="-4.0%" y="-2.6%" width="108.0%" height="108.0%" filterUnits="objectBoundingBox" id="filter-3">
            <feOffset dx="0" dy="2" in="SourceAlpha" result="shadowOffsetOuter1"></feOffset>
            <feGaussianBlur stdDeviation="1.5" in="shadowOffsetOuter1" result="shadowBlurOuter1"></feGaussianBlur>
            <feColorMatrix values="0 0 0 0 0   0 0 0 0 0   0 0 0 0 0  0 0 0 0.5 0" type="matrix" in="shadowBlurOuter1"></feColorMatrix>
        </filter>
    </defs>
    <g id="Pages" stroke="none" stroke-width="1" fill="none" fill-rule="evenodd">
        <g id="Profile-Page-Desktop-HD" transform="translate(-318.000000, -330.000000)">
            <g id="Group-12" transform="translate(182.000000, 273.000000)">
                <g id="Group-3" transform="translate(139.000000, 58.000000)">
                    <mask id="mask-2" fill="white">
                        <use xlink:href="#path-1"></use>
                    </mask>
                    <g id="Oval-5">
                        <use fill="black" fill-opacity="1" filter="url(#filter-3)" xlink:href="#path-1"></use>
                        <use fill="#4C5586" fill-rule="evenodd" xlink:href="#path-1"></use>
                    </g>
                    <g id="businesswoman" mask="url(#mask-2)">
                        <g transform="translate(21.000000, 21.000000)">
                            <g id="Group" stroke-width="1" fill="none" fill-rule="evenodd">
                                <path d="M79.2134306,84.1812571 C79.2078966,84.1789494 79.2074355,84.1789494 79.2134306,84.1812571 L79.2134306,84.1812571 Z" id="Shape" fill="#CDCFDE" fill-rule="nonzero"></path>
                                <path d="M94.7704595,122.734784 C94.7558243,122.630316 94.9021757,123.388094 92.1176486,109.367275 C91.9099324,108.321825 90.8957432,107.64124 89.8530541,107.850947 C88.8095946,108.059111 88.132527,109.075485 88.3399865,110.120421 L90.963527,123.325567 C91.400527,126.56407 89.9965811,127.882269 86.9624865,127.882269 L77.2832703,127.882269 L77.2527162,112.437754 C77.2522027,112.238596 77.2211351,112.040725 77.1605405,111.851345 C77.1171486,111.716 73.0914595,99.0167251 72.5751216,85.9247953 C78.5367568,88.0339649 79.5974189,88.347883 79.7360676,88.3720702 C79.7738108,88.3929123 79.8649595,88.4374269 80.0618919,88.5251696 C81.3449054,89.1023158 82.033527,89.7046784 82.1400811,89.7710643 L82.1395676,89.7715789 C82.7085405,90.3145029 84.6375541,91.6442807 85.3487703,95.0747368 L86.5850541,101.286713 C86.7673514,102.204795 87.572027,102.840351 88.4719595,102.840351 C88.5964865,102.840351 88.7230676,102.828257 88.8499054,102.802784 C89.8933649,102.59462 90.5704324,101.578503 90.362973,100.53331 C89.2206622,96.385731 89.5924459,90.9124912 84.9587568,87.1014737 C82.8995676,85.3440468 81.6191216,84.9624561 79.288027,84.2075088 C79.2400135,84.1905263 79.2184459,84.1830643 79.2117703,84.1807485 C79.2893108,84.2080234 80.9751757,84.8016374 63.6715676,78.7100819 L60.6305405,76.3755088 L64.9183784,76.3755088 C72.9412568,76.3755088 79.4682703,69.8344327 79.4682703,61.794269 L79.4682703,49.5295906 C80.9754324,47.2320702 80.9774865,44.3399064 79.4682703,42.0390409 C79.0040541,37.8032047 81.852,21.7985263 71.0484459,10.1802105 C59.8646351,-2.22727485 39.8067973,-3.40626901 26.9864189,7.26900585 C26.1683919,7.94984795 26.0561892,9.16718129 26.7358243,9.98697076 C27.4154595,10.8070175 28.6299189,10.919462 29.4479459,10.2381053 C40.1259459,1.34676023 57.5081216,1.3251462 68.2207838,12.8014269 C77.3710811,22.6298947 75.3347432,36.6679532 75.6164054,39.0411228 C74.6548514,38.6932398 73.6252568,38.5200702 72.5378919,38.551462 L72.5378919,37.5080702 C72.5378919,35.1256374 71.0101892,33.0095205 68.7360946,32.2419649 C65.6149595,31.1893099 63.7945541,27.5810526 63.1567703,26.0786199 C62.5788108,24.7166784 61.314027,23.755883 59.8559054,23.5706199 C50.7769865,22.4168421 47.7154189,24.474807 42.1586892,28.2096608 C38.1835811,30.8815673 34.8172432,33.6134269 30.3206622,32.1959064 C28.2740541,31.5508304 26.1152432,31.9051462 24.3977973,33.168538 C22.7070541,34.4118596 21.7375405,36.3326784 21.7375405,38.4385029 L21.7375405,38.551462 C20.9392838,38.5285614 20.1646486,38.613731 19.3848784,38.8162339 C19.5961892,36.3977778 18.2235676,25.6687251 23.9181757,16.544 C24.4820135,15.6403275 24.2083108,14.4494971 23.3065811,13.8844444 C22.4045946,13.3193918 21.2165811,13.5934269 20.6524865,14.4973567 C13.9981216,25.1592515 15.8493378,37.2214269 15.5327568,41.1096374 C14.3760676,42.372 13.6764054,44.003345 13.6764054,45.7841871 C13.6764054,47.5650292 14.3760676,49.1963743 15.5325,50.4584795 L15.5325,61.794269 C15.5325,69.8344327 22.0595135,76.3755088 30.0826486,76.3755088 L34.3658649,76.3755088 L31.3202162,78.7172865 C11.1874054,85.8002573 13.9929865,84.7162105 13.3331216,85.0167485 C7.50987838,87.7334269 6.64922973,92.1653333 6.25510811,92.8569825 C5.8805,94.0030409 0.233905405,122.70931 0.230310811,122.735041 C-0.510945946,127.990339 2.25227027,131.743205 8.03828378,131.743205 C31.1528108,131.743205 64.2128108,131.743205 86.961973,131.743205 C92.7977973,131.74269 95.5035,127.926526 94.7704595,122.734784 Z M61.2603649,81.7218947 C62.5307973,84.0701053 63.3344459,87.805731 60.9930811,90.911462 C59.8484595,89.3068772 57.7805405,88.6540819 55.9331757,89.2883509 L52.6641486,90.4120234 C52.5765946,90.3183626 52.4941757,90.2275322 52.4163784,90.1405614 L58.6956216,79.7532164 L61.2603649,81.7218947 Z M37.2638784,93.0008187 C37.364527,92.9362339 37.5457973,92.8598129 37.7768784,92.9398363 C41.3866216,94.1769825 41.3188378,94.1756959 41.7427432,94.262924 C44.2902838,94.7886082 45.5797162,93.108117 46.190027,92.7586901 C46.4003108,92.6434152 46.5951892,92.5592749 46.8337162,92.4977778 C47.4781757,92.3312982 48.1452297,92.4136374 48.7902027,92.7710409 C49.3147568,93.0780117 50.9736622,95.0747368 53.7733378,94.111883 L57.1828108,92.9398363 C57.4344324,92.8526082 57.6293108,92.9516725 57.7227703,93.0188304 C58.1407703,93.3180819 57.9004459,93.8306433 57.9723378,94.4625965 C57.9633514,96.6391813 58.0668243,96.6945029 57.768473,96.9963275 C57.3063108,97.3874386 57.1232432,97.0037895 53.7730811,95.941614 C52.1965946,95.4002339 50.4742703,95.7733333 49.2798378,96.9165614 C48.2728378,97.8799298 46.6878784,97.8812164 45.6795946,96.9165614 C44.4818243,95.7707602 42.7602703,95.4007485 41.1860946,95.9421287 C38.3453378,96.8504327 36.9876081,97.7340351 36.9876081,96.5488655 C37.0887703,93.6435789 36.7765541,93.3160234 37.2638784,93.0008187 Z M53.7322568,74.8532632 L53.7628108,74.8445146 L53.7628108,74.8447719 C53.9407432,74.7889357 54.8745676,74.5601871 56.2353784,74.0365614 C56.2353784,74.0821053 56.2353784,76.4586199 56.2353784,76.3724211 L48.7899459,88.6885614 C47.9236486,88.509731 47.0514459,88.5112749 46.2056892,88.6805848 L38.7584595,76.3721637 C38.7584595,76.3255906 38.7584595,74.2650526 38.7584595,74.3005614 C46.6272838,77.0455439 52.7501622,74.9615906 53.7322568,74.8532632 Z M72.5376351,42.4129123 C74.623527,42.3020117 76.7466486,43.7100117 76.7466486,45.7839298 C76.7466486,47.8637661 74.6312297,49.2655906 72.5376351,49.1531462 L72.5376351,42.4129123 Z M72.39,53.0122807 C73.4306351,53.0621988 74.5719189,52.909614 75.6161486,52.5357427 L75.6161486,61.7940117 L75.6161486,61.7940117 C75.6161486,67.7057076 70.8171081,72.5150877 64.9178649,72.5150877 L60.0872432,72.5150877 L60.0872432,72.1648889 C60.1129189,72.1489357 60.9615,71.6229942 60.9073243,71.6564444 C67.5134189,67.374807 71.6094595,60.4297544 72.39,53.0122807 Z M25.5896622,38.4382456 C25.5896622,37.5752281 25.9858378,36.7886316 26.677027,36.2804444 C27.3946622,35.7524444 28.3017838,35.6062924 29.1652568,35.878269 C32.7249324,37.0003977 36.490527,36.417076 40.0563649,34.192117 C48.7855811,28.7448655 49.9065811,26.1977544 59.3719189,27.3999064 C59.4761622,27.4132865 59.5683378,27.485848 59.6125,27.5892865 C60.6575,30.0509708 63.0728108,34.4043977 67.5072568,35.9003977 C68.2120541,36.138152 68.686027,36.7842573 68.686027,37.5078129 C68.686027,52.4855673 68.7104189,50.4481871 68.6118243,52.0363041 C68.208973,57.3633918 65.6491081,62.6181754 61.5612838,66.3110877 L61.4878514,66.3751579 C59.0627838,68.4776374 57.0929459,69.4229942 57.1196486,69.4088421 C57.093973,69.4217076 56.7599324,69.5905029 56.7856081,69.5776374 C55.3213243,70.3179181 53.7035,70.8940351 52.2345946,71.2545263 C49.5235,71.9199298 47.4635405,71.8458246 47.2681486,71.859462 C46.9749324,71.8247251 43.1274324,72.193193 37.6831622,69.6730994 C24.3610811,63.0203509 25.5896622,52.2367485 25.5896622,38.4382456 Z M17.5287838,45.7834152 C17.5287838,43.7352281 19.5949054,42.298924 21.7377973,42.4123977 L21.7377973,49.1523743 C19.4891216,49.2733099 17.5287838,47.743345 17.5287838,45.7834152 Z M30.0831622,72.5150877 C24.1841757,72.5150877 19.3848784,67.7054503 19.3848784,61.7940117 L19.3848784,52.7539415 C20.2411622,52.9749708 21.1919324,53.0495906 21.8851757,53.0122807 C22.8457027,62.2087953 28.4145,67.3732632 28.6101486,67.6786901 C28.6104054,67.6786901 28.6104054,67.6789474 28.6106622,67.6792047 C30.6624054,69.8125614 32.697973,71.3430409 34.7877162,72.5148304 L30.0831622,72.5148304 L30.0831622,72.5150877 Z M33.7373243,81.7244678 L36.3000135,79.7539883 L42.5843919,90.1405614 C42.504027,90.2308772 42.4182703,90.3253099 42.3271216,90.4228304 C38.9659189,89.2780585 38.969,89.2430643 38.511973,89.1455439 C36.7942703,88.7793918 35.0223919,89.4576608 33.9884324,90.881614 C31.9746892,88.1711111 32.1433784,84.626152 33.7373243,81.7244678 Z M17.7182703,127.882526 L8.0387973,127.882526 L8.0387973,127.882526 C5.08943243,127.882526 3.5927973,126.645123 4.03801351,123.325567 C10.9509324,88.8789708 9.17006757,90.6446316 16.9505676,87.863883 L22.4266757,85.9193918 C21.8687432,100.062175 17.7508784,111.431158 17.7490811,112.438269 L17.7182703,127.882526 Z M43.0124054,127.882269 L40.8263784,114.223485 C40.6579459,113.170573 39.6678919,112.454222 38.6198108,112.623275 C37.5694189,112.79207 36.8546081,113.782199 37.0230405,114.834596 L39.1112432,127.882269 L21.5696216,127.882269 L21.5996622,112.740094 C22.2623514,110.599532 26.0631216,97.7777778 26.3188514,84.6104561 L28.9393108,83.7024094 C27.5238108,90.4737778 31.8404054,94.2011696 32.0029324,94.4790643 C32.3231081,94.8073918 32.7362297,95.179462 33.134973,95.4807719 C33.2209865,95.8839766 32.6974595,98.1542222 34.6262162,99.876655 C34.6272432,99.8776842 34.6282703,99.8787135 34.6292973,99.8797427 L35.5985541,105.935275 C35.7669865,106.988187 36.7552432,107.704538 37.8051216,107.535485 C38.8555135,107.36669 39.5703243,106.376561 39.4016351,105.324164 L38.6878514,100.864725 C39.0478243,100.772351 38.9022432,100.800912 42.4357297,99.5930994 C42.6424189,99.5220819 42.8714459,99.5668538 43.0188243,99.708117 C45.5139865,102.096468 49.4408243,102.098012 51.9388108,99.7083743 C52.0864459,99.5671111 52.3162432,99.5225965 52.5226757,99.5928421 C56.0533378,100.799368 55.9126351,100.775181 56.2964865,100.871158 L51.9868243,127.882526 L43.0124054,127.882526 L43.0124054,127.882269 Z M55.8887568,127.882526 L60.3606892,99.8534971 C61.9857027,98.3773099 61.8208649,96.6587368 61.8242027,95.5121637 C65.1052973,93.0664327 67.1013243,88.6638596 66.0601757,83.6962339 L68.6819189,84.6089123 C68.9371351,97.7775205 72.7386757,110.599532 73.4011081,112.740351 L73.4311486,127.882784 L55.8887568,127.882784 L55.8887568,127.882526 Z" id="Shape" fill="#CDCFDE" fill-rule="nonzero"></path>
                            </g>
                            <path d="M48.4003824,106.583381 C47.9572355,106.13858 47.2889262,105.903143 46.6004135,106.037754 C44.6834772,106.439193 44.4019579,109.068097 46.2285103,109.837188 C48.180271,110.664274 49.9698724,108.149497 48.4003824,106.583381 Z" id="Shape" fill="#CDCFDE" fill-rule="nonzero"></path>
                            <path d="M45.3464004,113.8885 C44.047239,115.858994 46.6988213,118.101692 48.4047159,116.393877 C48.5973511,116.202092 48.7505054,115.959781 48.8339718,115.751065 C49.7401786,113.565771 46.7041208,111.901869 45.3464004,113.8885 Z" id="Shape" fill="#CDCFDE" fill-rule="nonzero"></path>
                            <path d="M45.1519797,120.231974 C45.0485269,120.490868 45,120.747893 45,120.997979 C45,122.11736 45.9118784,123 47,123 C48.0830556,123 49,122.117627 49,120.997979 C49,118.864376 46.0158646,118.182178 45.1519797,120.231974 Z" id="Shape" fill="#CDCFDE" fill-rule="nonzero"></path>
                        </g>
                    </g>
                </g>
            </g>
        </g>
    </g>
</svg>