<?xml version="1.0" encoding="UTF-8"?>
<svg width="37px" height="37px" viewBox="0 0 37 37" version="1.1" xmlns="http://www.w3.org/2000/svg" xmlns:xlink="http://www.w3.org/1999/xlink">
    <!-- Generator: Sketch 47 (45396) - http://www.bohemiancoding.com/sketch -->
    <title>behance-logo-button</title>
    <desc>Created with Sketch.</desc>
    <defs></defs>
    <g id="Pages" stroke="none" stroke-width="1" fill="none" fill-rule="evenodd">
        <g id="Crawling-Page-Search-Box-Desktop-HD" transform="translate(-600.000000, -555.000000)" fill-rule="nonzero" fill="#F8F6FC">
            <g id="Footer" transform="translate(0.000000, 519.000000)">
                <g id="Group-6" transform="translate(600.000000, 36.000000)">
                    <g id="behance-logo-button">
                        <path d="M16,15.397744 C16,14 15.022528,14 15.022528,14 L14.504687,14 L11.0015119,14 L11,14 L11,17 L14.7730572,17 C15.4254611,17 16,16.7976949 16,15.397744 Z" id="Shape"></path>
                        <path d="M24.1426105,17 C22.2625781,17 22,18.9999992 22,18.9999992 L25.9999839,18.9999992 C25.9999839,19.0014207 26.0246423,17 24.1426105,17 Z" id="Shape"></path>
                        <path d="M14.6696108,19.0000034 L11,19.0000034 L11,22.9985451 L14.250759,22.9985451 C14.3059619,22.9985451 14.3873861,23.0018186 14.4846812,22.9985451 C15.0070384,22.9829962 16,22.8062289 16,21.0557416 C16,18.9803626 14.6696108,19.0000034 14.6696108,19.0000034 Z" id="Shape"></path>
                        <path d="M18.5,0 C8.29914203,0 0,8.29914203 0,18.5 C0,28.7001128 8.29914203,37 18.5,37 C28.7001128,37 37,28.7001128 37,18.5 C37,8.29914203 28.7016032,0 18.5,0 Z M21.7736043,12.3812737 L27.3915653,12.3812737 L27.3915653,14.0586885 L21.7736043,14.0586885 L21.7736043,12.3812737 Z M18.9329534,21.1774551 C18.9329534,25.3333602 14.6064005,25.1977362 14.6064005,25.1977362 L10.6434988,25.1977362 L10.5272497,25.1977362 L7.52116732,25.1977362 L7.52116732,11.579453 L10.5272497,11.579453 L10.6434988,11.579453 L14.6064005,11.579453 C16.7607347,11.579453 18.4605051,12.7695158 18.4605051,15.2062757 C18.4605051,17.6422903 16.3829252,17.7972891 16.3829252,17.7972891 C19.1214855,17.7965439 18.9329534,21.1774551 18.9329534,21.1774551 Z M29.4438089,20.9538991 L22.3861476,20.9538991 C22.3861476,23.4845525 24.7834126,23.3250826 24.7834126,23.3250826 C27.0457988,23.3250826 26.966809,21.8600459 26.966809,21.8600459 L29.3655643,21.8600459 C29.3655643,25.7484291 24.705168,25.4809071 24.705168,25.4809071 C19.1140337,25.4809071 19.4732136,20.2757794 19.4732136,20.2757794 C19.4732136,20.2757794 19.4679973,15.0430798 24.705168,15.0430798 C30.2165673,15.0430798 29.4423185,20.9538991 29.4438089,20.9538991 Z" id="Shape"></path>
                    </g>
                </g>
            </g>
        </g>
    </g>
</svg>