<?xml version="1.0" encoding="UTF-8"?>
<svg width="56px" height="56px" viewBox="0 0 56 56" version="1.1" xmlns="http://www.w3.org/2000/svg" xmlns:xlink="http://www.w3.org/1999/xlink">
    <!-- Generator: Sketch 47 (45396) - http://www.bohemiancoding.com/sketch -->
    <title>server-3</title>
    <desc>Created with Sketch.</desc>
    <defs>
        <filter x="-9.5%" y="-8.5%" width="119.0%" height="119.0%" filterUnits="objectBoundingBox" id="filter-1">
            <feOffset dx="0" dy="0.5" in="SourceAlpha" result="shadowOffsetOuter1"></feOffset>
            <feGaussianBlur stdDeviation="1.5" in="shadowOffsetOuter1" result="shadowBlurOuter1"></feGaussianBlur>
            <feColorMatrix values="0 0 0 0 0   0 0 0 0 0   0 0 0 0 0  0 0 0 0.5 0" type="matrix" in="shadowBlurOuter1" result="shadowMatrixOuter1"></feColorMatrix>
            <feMerge>
                <feMergeNode in="shadowMatrixOuter1"></feMergeNode>
                <feMergeNode in="SourceGraphic"></feMergeNode>
            </feMerge>
        </filter>
    </defs>
    <g id="Pages" stroke="none" stroke-width="1" fill="none" fill-rule="evenodd">
        <g id="Profile-Page-Desktop-HD" transform="translate(-640.000000, -147.000000)" fill-rule="nonzero">
            <g id="Navi" transform="translate(-1.000000, 127.000000)">
                <g id="Group-7" transform="translate(450.000000, 22.000000)">
                    <g id="Group-2" transform="translate(194.000000, 0.000000)">
                        <g id="server-3" filter="url(#filter-1)">
                            <circle id="Oval" fill="#FFDC2C" cx="25" cy="25" r="25"></circle>
                            <path d="M50,25.2314564 C50,24.1011014 49.9214651,22.9889357 49.7725536,21.8988295 L39.6747782,11.9591936 L39.3288906,13.2522858 L33.993041,8 L10,38.5037192 L21.4517401,49.7761156 C22.5591899,49.9226951 23.6890501,50 24.8373891,50 C38.7343256,50 50,38.9107554 50,25.2314564 Z" id="Shape" fill="#EBC246"></path>
                            <rect id="Rectangle-path" fill="#333333" x="10" y="12" width="14" height="27"></rect>
                            <g id="Group" transform="translate(10.000000, 12.000000)" fill="#1A1A1A">
                                <rect id="Rectangle-path" x="0.0048013245" y="3.71641304" width="13.7788411" height="3.6498913"></rect>
                                <rect id="Rectangle-path" x="0.0048013245" y="11.6755435" width="13.7788411" height="3.6498913"></rect>
                                <rect id="Rectangle-path" x="0.0048013245" y="19.6346739" width="13.7788411" height="3.6498913"></rect>
                                <rect id="Rectangle-path" x="15.2163576" y="0.0802173913" width="13.7788411" height="26.8395652"></rect>
                            </g>
                            <rect id="Rectangle-path" fill="#000000" x="26" y="15" width="14" height="4"></rect>
                            <rect id="Rectangle-path" fill="#000000" x="26" y="23" width="14" height="4"></rect>
                            <rect id="Rectangle-path" fill="#000000" x="26" y="31" width="14" height="4"></rect>
                            <rect id="Rectangle-path" fill="#4D4D4D" x="16" y="8" width="18" height="35"></rect>
                            <g id="Group" transform="translate(16.000000, 8.000000)" fill="#333333">
                                <rect id="Rectangle-path" x="9" y="0.0880865922" width="8.91861702" height="34.8240223"></rect>
                                <rect id="Rectangle-path" x="0.0813829787" y="4.8051676" width="17.837234" height="4.73575419"></rect>
                            </g>
                            <rect id="Rectangle-path" fill="#1A1A1A" x="25" y="12" width="9" height="5"></rect>
                            <rect id="Rectangle-path" fill="#333333" x="16" y="23" width="18" height="5"></rect>
                            <rect id="Rectangle-path" fill="#1A1A1A" x="25" y="23" width="9" height="5"></rect>
                            <g id="Group" transform="translate(16.000000, 23.000000)" fill="#333333">
                                <polyline id="Shape" points="9 4.76303226 9 0.0755806452 0.0815744681 0.0755806452 0.0815744681 4.76303226"></polyline>
                                <rect id="Rectangle-path" x="0.0813829787" y="10.2977419" width="17.837234" height="4.68774194"></rect>
                            </g>
                            <rect id="Rectangle-path" fill="#1A1A1A" x="25" y="33" width="9" height="5"></rect>
                            <polygon id="Shape" fill="#FF6838" points="27.4171 38.6382879 27.4171 30 23.5829 30 23.583 38.6382879 19 34.713812 19 39.4372697 25.5 45 32 39.4372697 32 34.713812"></polygon>
                            <polygon id="Shape" fill="#AE4E32" points="27.0644615 38.6382879 27.0644615 30 25 30 25 45 25 45 32 39.4372697 32 34.713812"></polygon>
                        </g>
                    </g>
                </g>
            </g>
        </g>
    </g>
</svg>