<?xml version="1.0" encoding="UTF-8"?>
<svg width="37px" height="37px" viewBox="0 0 37 37" version="1.1" xmlns="http://www.w3.org/2000/svg" xmlns:xlink="http://www.w3.org/1999/xlink">
    <!-- Generator: Sketch 47 (45396) - http://www.bohemiancoding.com/sketch -->
    <title>facebok</title>
    <desc>Created with Sketch.</desc>
    <defs></defs>
    <g id="Pages" stroke="none" stroke-width="1" fill="none" fill-rule="evenodd">
        <g id="Crawling-Page-Search-Box-Desktop-HD" transform="translate(-741.000000, -555.000000)" fill-rule="nonzero" fill="#F3F5F9">
            <g id="Footer" transform="translate(0.000000, 519.000000)">
                <g id="Group-6" transform="translate(600.000000, 36.000000)">
                    <g id="facebok" transform="translate(141.000000, 0.000000)">
                        <path d="M18.5,0 C28.7172754,0 37,8.31499393 37,18.5720756 C37,28.0428911 29.9382754,35.8575272 20.8125,37 L20.8125,23.2150945 L27.171875,23.2150945 L27.75,18.5720756 L20.8125,18.5720756 L20.8125,16.2505662 C20.8125,14.96844 21.8477773,13.9290567 23.125,13.9290567 L27.75,13.9290567 L27.75,9.28603781 L23.125,9.28603781 C19.2934766,9.28603781 16.1875,12.4041152 16.1875,16.2505662 L16.1875,18.5720756 L12.71875,18.5720756 L12.71875,23.2150945 L16.1875,23.2150945 L16.1875,32.3923116 L16.1875,36.5590583 L16.1875,37 C7.06172461,35.8574546 0,28.0428911 0,18.5720756 C0,8.31499393 8.28272461,0 18.5,0 Z" id="Shape"></path>
                    </g>
                </g>
            </g>
        </g>
    </g>
</svg>