<?xml version="1.0" encoding="UTF-8"?>
<svg width="38px" height="37px" viewBox="0 0 38 37" version="1.1" xmlns="http://www.w3.org/2000/svg" xmlns:xlink="http://www.w3.org/1999/xlink">
    <!-- Generator: Sketch 47 (45396) - http://www.bohemiancoding.com/sketch -->
    <title>github-logo</title>
    <desc>Created with Sketch.</desc>
    <defs></defs>
    <g id="Pages" stroke="none" stroke-width="1" fill="none" fill-rule="evenodd">
        <g id="Crawling-Page-Search-Box-Desktop-HD" transform="translate(-670.000000, -555.000000)" fill-rule="nonzero" fill="#FBFBFB">
            <g id="Footer" transform="translate(0.000000, 519.000000)">
                <g id="Group-6" transform="translate(600.000000, 36.000000)">
                    <g id="github-logo" transform="translate(70.000000, 0.000000)">
                        <path d="M35.4512776,9.4448841 C33.7522449,6.53932474 31.4476155,4.23898935 28.5367829,2.54335902 C25.625517,0.847642197 22.4472826,0 18.9998267,0 C15.552804,0 12.3735298,0.847901653 9.46287049,2.54335902 C6.55177792,4.23890287 4.24723518,6.53932474 2.54820247,9.4448841 C0.849429706,12.350357 0,15.5231558 0,18.9631942 C0,23.0954607 1.20790065,26.8113006 3.62430851,30.1116653 C6.04045642,33.4122894 9.16176182,35.6961926 12.9879648,36.9636343 C13.4333456,37.0461412 13.7630488,36.9881096 13.9774208,36.7910097 C14.1918795,36.5936503 14.2989789,36.3464753 14.2989789,36.0505227 C14.2989789,36.0011396 14.294733,35.5568648 14.2865013,34.7171792 C14.2780096,33.8774937 14.2740237,33.1449634 14.2740237,32.5199343 L13.7049933,32.6181816 C13.3421899,32.6845158 12.8845047,32.7126235 12.3319378,32.7046668 C11.7796309,32.6969696 11.206268,32.6391975 10.612629,32.5317828 C10.0187301,32.4253194 9.46633648,32.1784039 8.95501498,31.7915553 C8.44395343,31.4047066 8.08114998,30.8983353 7.86669129,30.2732198 L7.61930561,29.7050115 C7.45441071,29.3267249 7.19480739,28.9064929 6.84014904,28.4458724 C6.48549069,27.9848193 6.12684644,27.6722616 5.764043,27.5076801 L5.5908297,27.3839196 C5.47541193,27.3016721 5.36831256,27.2024735 5.26927164,27.0873616 C5.17031737,26.9722497 5.09623164,26.8570513 5.0467545,26.74168 C4.99719072,26.6262221 5.0382628,26.5315208 5.17040402,26.4572299 C5.30254523,26.382939 5.54135256,26.3468747 5.88786581,26.3468747 L6.38246387,26.4206466 C6.71234032,26.4866349 7.12037506,26.6837348 7.60708797,27.0131573 C8.09354093,27.3423202 8.49343056,27.7702494 8.80684352,28.2967717 C9.18637041,28.9718758 9.64362233,29.4862902 10.179899,29.8402745 C10.7157425,30.1942587 11.2560051,30.3709481 11.8001669,30.3709481 C12.3443288,30.3709481 12.8143182,30.3297811 13.2103086,30.2478796 C13.6058657,30.1655456 13.9769876,30.0417852 14.3235008,29.8772902 C14.4719322,28.773911 14.8760677,27.9262688 15.5355607,27.3337582 C14.5955818,27.235165 13.7504846,27.0866697 12.9998358,26.8892239 C12.2496203,26.6915185 11.474363,26.3706581 10.6745837,25.9257779 C9.87437122,25.481503 9.21054576,24.9298134 8.68293406,24.2716605 C8.15523571,23.6131616 7.72215913,22.7486548 7.38431088,21.6789184 C7.04628933,20.6087495 6.87723523,19.3742587 6.87723523,17.9750999 C6.87723523,15.9829116 7.52884304,14.2876272 8.83179872,12.8882954 C8.22143629,11.3905434 8.27905853,9.7115182 9.00483872,7.85139287 C9.48314658,7.70307062 10.1924633,7.81437717 11.1324422,8.18462064 C12.0725944,8.55503708 12.7609418,8.87235156 13.1981776,9.13543978 C13.6354134,9.3984415 13.9857392,9.62131406 14.2496751,9.80206829 C15.7838129,9.37422562 17.3669946,9.16026105 18.9996534,9.16026105 C20.6323122,9.16026105 22.2158405,9.37422562 23.750065,9.80206829 L24.6901306,9.20973063 C25.3329867,8.81449291 26.0921272,8.45229257 26.9657322,8.12304313 C27.8398572,7.79396665 28.5082751,7.70333008 28.9702927,7.85165233 C29.7121898,9.71186414 29.7783038,11.3908028 29.167768,12.8885548 C30.4706371,14.2878866 31.1225048,15.9836034 31.1225048,17.9753594 C31.1225048,19.3745182 30.9528442,20.6129008 30.6153425,21.6912858 C30.2774076,22.7698436 29.8406051,23.6334856 29.3047616,24.2840279 C28.7683116,24.9344836 28.1002403,25.4818489 27.3004611,25.9260373 C26.5005085,26.3705717 25.7249912,26.691432 24.9747757,26.8891374 C24.2242137,27.0868427 23.3791164,27.2354244 22.4391375,27.3341906 C23.2964524,28.0746775 23.7251964,29.2435261 23.7251964,30.8402172 L23.7251964,36.0498308 C23.7251964,36.3457835 23.8283099,36.5928719 24.0347102,36.7903178 C24.2408504,36.9874177 24.5663944,37.0454494 25.0117753,36.9628559 C28.8384981,35.6955872 31.9598035,33.4115975 34.3758648,30.1109734 C36.7916661,26.8106087 38,23.0947688 38,18.9625023 C37.9991335,15.5228964 37.1492705,12.350357 35.4512776,9.4448841 Z" id="Shape"></path>
                    </g>
                </g>
            </g>
        </g>
    </g>
</svg>